<?xml version="1.0" standalone="yes"?>
<svg xmlns="http://www.w3.org/2000/svg" width="366" height="83">
<path style="fill:#000000; stroke:none;" d="M0 9L0 47L1.5 46.2222L2.05556 45.7222L3.05556 45.0278L4 44.4167L6 44.0556L8 45.1389L9 46.0278L10 47L12 49L14 51L17 54L19 56L21 57.9722L21.9444 58.8889L22.9444 59.6944L23.5 60.2222L25 61L25 9L0 9z"/>
<path style="fill:#5d655b; stroke:none;" d="M25 9L25 61L17 53L13 49L11 47L9 45.1111L8 44.3333L7 43.75L6 43.4444L5 43.4444L4 43.75L2.11111 45.1111L1.33333 46.0278L0.75 47L0.444444 49L1.33333 51L3.02778 53L5 55L8 58L15 65L18 68L19 69L21 71L22 71.9722L23 72.8889L25 74.2778L27 74.8889L29 75L30 75L30.9444 75L34 75L34 9L25 9z"/>
<path style="fill:#000000; stroke:none;" d="M34 9L34 75L56 75L55.2222 73.9167L54.7222 73.5278L54 72.7222L52.7222 70.9722L52.1111 69L52.0556 68L52.0833 67L52.5 65L52.9444 64.0278L53.5 63.0833L55.0833 61.5L57 60.5L59 60.0833L61 60L62 60.0278L63 60.0833L65 60.3889L65.9444 60.6111L66.9444 60.7778L67.5 60.9167L69 61L67.8333 63L67.4722 63.5556L67 65L65.5 64.3333L63.9444 63.6111L62 63.1111L60 63.1111L59.0278 63.3333L57.2778 64.2778L56.4722 65.0556L55 67L55.9167 69.0278L56.5 69.9444L58.0833 71.2778L60 71.8889L62 71.9167L63.9167 71.5L64.7222 71.1111L65.5278 70.5556L67 69L67.6667 70.4444L68.3333 71.5556L69 73L68 73L66 74L66.7778 74.7222L67.3056 74.75L68.1111 74.9444L69.0278 74.9722L71 75L73 75L77 75L76.2222 73.9167L75.7222 73.5278L75 72.7222L74.2778 71.9167L73.1389 70L72.6389 68L72.8056 66L73.6389 64.0278L74.3056 63.0833L76.0278 61.5L78 60.5L79 60.25L80 60.0833L82 60L84 60.0833L85 60.25L86 60.5L87.9722 61.5L89.6944 63.0833L90.8611 65L91.3611 67L91.3611 68L90.8611 70L90.3611 70.9722L88.9444 72.6944L88.4722 73.2222L87 74L87.7778 74.7222L88.3056 74.75L89.1111 74.9444L90.0278 74.9722L91.9444 75L92.9444 75L95 75L96 74L96 69L96 67L96 65L95.9722 64L95.9444 63.0556L95.75 62.0556L95.7222 61.5L95 60L101 60L101.361 61.5L102.333 63.0556L103.111 64L104.944 65.8889L105.944 66.6944L106.5 67.2222L108 68L108 60L113 60L112.278 61.5L112.25 62.0556L112.056 63.0556L112.028 64L112 65L112 67L112 69L112 74L113 75L119 75L118.111 73.5278L117.833 72.7778L117.694 71.4722L118 70L119.5 70.9722L120.056 71.1389L121.056 71.5556L123 71.9167L124.944 71.9444L125.944 71.75L126.5 71.7222L128 71L127.222 69.8611L125.889 69.2778L124.972 69.1111L124 69.0278L122 68.8889L121 68.6667L119.111 67.6667L118.333 66.8889L117.75 65.9722L117.444 64L117.75 63.0278L118.333 62.1111L119.111 61.3333L121 60.3333L123 60.0278L124 60L126 60.0833L128 60.3889L129.944 60.7778L130.5 60.9167L132 61L131.333 62.4444L130.667 63.5556L130 65L128.5 64.0278L126.944 63.4444L125 63.0833L123.056 63L121 63L121.361 64.1667L122.333 64.9444L124.028 65.5833L126 65.9444L127 66.0833L128.972 66.7222L130.667 68.1111L131.278 69.0278L131.667 69.9444L131.972 71.5L132 73L131 73L129 74L129.778 74.7222L130.306 74.75L131.111 74.9444L132.028 74.9722L134 75L136 75L140 75L141 74L141 63L138.944 63.0278L138 63.0556L137.056 63.25L136.5 63.2778L135 64L135 59L136.5 59.7222L137.056 59.75L138.056 59.9444L139 59.9722L140 60L141 60L143 60L145 60L146 59.9722L146.944 59.9444L147.944 59.75L148.5 59.7222L150 59L150 64L148.5 63.2778L147.944 63.25L147 63.0556L146.056 63.0278L144 63L144 74L145 75L153 75L154 74L154 69L154 67L154 65L153.972 64L153.944 63.0556L153.75 62.0556L153.722 61.5L153 60L168 60L168.5 61.5L168.778 62.0556L169.278 64L169.25 64.9722L168.528 66.7222L167.806 67.5278L166 69L166.75 70.5L167.222 71.0556L167.833 72L168.556 72.9444L170 75L176 75L175.5 73.5L175.194 72.9444L174.472 71L174.083 69L174.028 68L174 66L174 65L173.944 63.0556L173.75 62.0556L173.722 61.5L173 60L178 60L178 71L179 72L185 72L186 71L186 67.9444L186 66L185.972 64L185.944 63.0556L185.75 62.0556L185.722 61.5L185 60L191 60L190.278 61.5L190.25 62.0556L190.056 63.0556L190 65L190 66L189.972 68L189.917 69L189.528 71L188.806 72.9444L188.5 73.5L188 75L198 75L197.222 73.9167L196.722 73.5278L196 72.7222L194.639 70.9722L193.806 69L193.639 68L193.806 66L194.639 64.0278L195.306 63.0833L197.028 61.5L199 60.5L200 60.25L202 60.0278L204 60.0278L205 60.0833L207 60.3889L207.944 60.6111L208.944 60.7778L209.5 60.9167L211 61L209.667 63L209.306 63.5556L209 65L207.5 64.3333L206.944 64.0278L205.944 63.6111L204 63.1111L202 63.1111L201 63.3333L200.028 63.7222L198.333 65.1111L197.444 67L197.75 68.9722L199.111 70.6667L201 71.6667L202 71.8889L203 71.9444L204 71.9167L205.917 71.5L206.722 71.1111L207.917 70.2222L209 69L209.472 70.4444L209.833 71L211 73L209.556 73.4167L208.444 73.75L207 74L207.778 74.7222L208.306 74.75L209.111 74.9444L210.028 74.9722L212 75L214 75L219 75L219 63L216.944 63.0833L215.056 63.4167L213 64L213 59L215.056 59.5833L216.056 59.7778L217 59.9167L219 60L220 60L222 60L224 60L225 59.9722L225.944 59.9444L226.944 59.75L227.5 59.7222L229 59L229 64L227.5 63.2778L226.944 63.25L226 63.0556L225.056 63.0278L223 63L223 74L224 75L236 75L235.222 73.9167L234.722 73.5278L234 72.7222L233.278 71.9167L232.139 70L231.639 68L231.806 66L232.639 64.0278L233.306 63.0833L235.028 61.5L237 60.5L238 60.25L239 60.0833L241 60L243 60.0833L244 60.25L245 60.5L246.972 61.5L248.694 63.0833L249.861 65L250.361 67L250.361 68L249.861 70L249.361 70.9722L247.944 72.6944L247.472 73.2222L246 74L246.778 74.7222L247.306 74.75L248.111 74.9444L249.028 74.9722L250.944 75L251.944 75L254 75L255 74L255 69L255 67L255 65L254.972 64L254.944 63.0556L254.75 62.0556L254.722 61.5L254 60L269 60L270 61L270 62.5L269.889 64.0556L269.333 65.9444L268.389 67.5L267 69L267.694 70.5L268.722 72.0278L269.417 72.8889L271.083 74.2778L272.028 74.6667L272.944 74.8889L274.5 75L276 75L276 74L274 73L275 72L275 70L276.5 70.5L277.056 70.8056L279 71.5278L281 71.9167L282.944 71.9444L283.944 71.75L284.5 71.7222L286 71L285.222 70.0278L283.889 69.4444L282 69.0833L280 68.9167L278.028 68.5L276.25 67.5L275.528 66.75L274.833 64.9722L274.972 64L275.417 63.0278L276.139 62.1111L278 60.7222L280 60.1111L281 60.0278L282 60L284 60.0833L285.944 60.3889L287.5 60.75L289 61L288.583 62.4444L288.25 63.5556L288 65L286.5 64.5L285.944 64.1944L284 63.4722L282 63.1111L281.056 63.0833L280.056 63.25L279.5 63.2778L278 64L278.778 64.8056L279.306 64.9722L280.111 65.3333L282 65.7778L283 65.9167L284.944 66L285.944 66L288 66L288.5 67.5L288.778 68.0556L289.194 70L289.056 71L288.167 72.9444L287.75 73.5L287 75L302 75L303 74L303 69L303 67L303 65L302.972 64L302.944 63.0556L302.75 62.0556L302.722 61.5L302 60L308 60L307.278 61.5L307.25 62.0556L307.056 63.0556L307.028 64L307 65L307 67L307 69L307 74L308 75L312 75L312 60L313.5 60.0278L315.056 60.3333L316 60.7222L317.917 62.1111L319.611 64L320.389 65L322.028 66.8889L323.5 68.2222L325 69L325 65.9444L325 65L324.972 64L324.944 63.0556L324.75 62.0556L324.722 61.5L324 60L329 60L329 75L337 75L336.25 73.9167L335.778 73.5278L335.139 72.7222L334.472 71.9167L333.5 70L333.111 68L333.139 67L333.333 66L333.722 65L334.333 64L335.111 63.0278L337 61.3333L338 60.7222L339 60.3333L341 60.0278L342 60L344 60.0278L345 60.0833L346.944 60.3889L348.5 60.75L350 61L349.333 62.4444L348.667 63.5556L348 65L345.944 63.8611L344.944 63.4444L343 63.1111L342 63.1111L340.056 63.4444L338.5 64.0278L337 65L337 70L338.5 70.9722L339.056 71.1389L340.056 71.5556L342 71.8889L343 71.8889L344.917 71.5L345.778 71.0833L347.333 70.0556L347.75 69.6944L349 69L349.25 70.4444L349.583 71.5556L350 73L349 73L347 74L347.778 74.7222L348.306 74.75L349.111 74.9444L350.028 74.9722L350.944 75L351.944 75L354 75L354 71L359 71L359 9L200 9L200 29L200 33L200 35L200 37L199.917 39L199.583 41L199.306 42L198.583 44L197.5 45.9722L195.917 47.75L194 49.1389L192 50.1667L190 50.9722L188 51.5833L187 51.7778L185 51.9722L184 52L182 51.9167L180 51.6111L179.056 51.3889L178.056 51.2222L177.5 51.0833L176 51L176.722 49.5L176.75 49L176.944 48L177 46L178.5 46.0833L179.056 46.2222L180.056 46.3889L181 46.6111L183 46.8333L184 46.75L186 46.3611L187 46.1111L188.917 45.3056L189.75 44.6667L190.5 43.8889L191.5 42L191.917 40L192 38L192 37L192 36L192 34L192 9L142 9L142 15L121 15L121 27L140 27L140 32L121 32L121 46L143 46L143 51L113 51L113 9L87 9L87.7222 9.72222L88.25 9.75L90 10L89.75 11.5L89.3889 13L89.2222 13.9444L89.0833 14.5L89 16L87.5 15.25L86.9444 15.1667L85.9444 14.8333L85 14.6389L84 14.3889L82 14.0833L81 14.0278L79 14L77 14L75 14.0278L74 14.0833L72 14.3889L71 14.6389L69 15.1667L68 15.4722L67 15.9167L65 17.0278L63.0833 18.4167L62.25 19.2222L61.4722 20.0833L60.2778 22L59.3889 24L59.0278 25L58.4167 27L58.0833 29L58.0278 31L58.0833 32L58.4167 34L59.0278 36L59.9167 38L60.5 39L62.0833 40.9722L63.0278 41.9167L65 43.5L66 44.0833L67 44.5833L69 45.3056L71 45.8056L72 46L74 46.3889L75 46.6111L77 46.8889L78 46.8889L80 46.6111L81 46.3889L82 46.2222L83 46.0556L85 45.7778L86.9444 45.3889L87.5 45.25L89 45L89.0833 46.5L89.2222 47L89.4167 48L90 50L88.5 50.25L86.9444 50.6111L86 50.8056L84 51.1944L83 51.3889L82 51.6111L80 51.9167L79 51.9722L78 52L76 52L74 51.9722L73 51.9167L71 51.6111L70 51.3611L68 50.8611L67 50.6111L65 49.9722L64 49.6111L62 48.7222L61 48.1667L60 47.6111L58.0278 46.3056L57.0833 45.5833L56.2222 44.7778L55.4167 43.9167L54.0278 42L53.3889 41L52.2778 39L51.4722 37L51.2222 36L50.8056 34L50.4167 32L50.3056 31L50.3056 30L50.4167 29L50.8056 27L51 26L51.4722 24L52.2778 22L52.8611 21L53.4722 20L55.0833 18L56.0278 17L58 15.0833L59 14.25L60 13.4722L62 12.25L63 11.7778L64 11.25L65.9444 10.4722L67.5 10.0833L69 10L68.2222 9.27778L67.6944 9.25L66.8889 9.05556L65.9722 9.02778L64 9L62 9L58 9L34 9z"/>
<path style="fill:#919396; stroke:none;" d="M90 50L89.75 48.5L89.6111 48L89.25 46.5L89 45L87.5 45.0833L86.9444 45.2222L85 45.6111L83 45.9444L82 46.0556L80 46.3889L78 46.6944L77 46.6944L76 46.5833L74 46.1944L72 45.8056L71 45.5833L69 44.9722L68 44.5833L66 43.5L64 41.9167L63.0278 40.9722L61.25 39L60.5 38L59.4167 36L58.6944 34L58.2222 32L58.1111 31L58.2222 29L58.4167 28L59.0278 26L59.8333 24L60.2778 23L61.4722 21.0278L62.25 20.0833L63.0833 19.2222L65 17.6944L67 16.4167L68 15.9167L69 15.4722L71 14.8611L72 14.6389L73 14.3889L75 14.0833L76 14.0278L78 14L80 14.0278L81 14.0833L83 14.3889L84 14.6389L85 14.8611L85.9444 15.1389L86.9444 15.3889L89 16L89.25 14.5L89.6111 13L89.7778 12.0556L89.9167 11.5L90 10L88.5 9.75L86.9444 9.38889L85 9.08334L84 9.02778L82 9L80 9L77 9L75 9L74 9L72 9.02778L71 9.08334L69 9.38889L68 9.63889L66 10.1667L65 10.4444L64 10.8611L62 11.7778L61 12.25L59 13.4722L58 14.25L56.0278 16.0278L55.0833 17L53.4722 19L52.8611 20L52.2778 21L51.4722 23L51 25L50.8056 26L50.3889 28L50.2222 29L50.1111 30L50.1111 31L50.3889 33L50.8056 35L51.2222 37L51.4722 38L52.2778 40L53.3889 42L54.0278 42.9722L55.4167 44.7778L56.2222 45.5833L58.0278 46.9722L60 48.1667L61 48.7222L63 49.6111L64 49.9722L66 50.6111L67 50.8611L69 51.3611L70 51.6111L72 51.9167L73 51.9722L75 52L77 52L79 52L80 51.9722L81 51.9167L83 51.6111L84 51.3889L86 51L87.9444 50.5833L90 50M113 9L113 51L143 51L143 46L121 46L121 32L140 32L140 27L121 27L121 15L142 15L142 9L113 9z"/>
<path style="fill:#5d655b; stroke:none;" d="M192 9L192 34L192 36L192 37L191.917 39L191.5 41L190.5 42.9722L188.917 44.6667L187 45.75L186 46.1111L184 46.5278L182 46.5278L181 46.3611L179.056 46.0833L177 46L176.917 47.5L176.778 48L176.583 49L176 51L177.5 51.25L179.056 51.6111L181 51.9167L182 51.9722L184 52L186 51.9722L187 51.9167L189 51.5833L191 50.9722L193 50.1667L194 49.7222L195.917 48.5278L197.5 46.9167L198.083 45.9722L198.972 44L199.583 42L199.778 41L199.917 40L200 38L200 37L200 36L200 34L200 9L192 9z"/>
<path style="fill:#000000; stroke:none;" d="M29 11L30 12L29 11z"/>
<path style="fill:#939598; stroke:none;" d="M30 11L30 14L31.1389 13.2778L31.3333 12.75L32 11L30 11z"/>
<path style="fill:#000000; stroke:none;" d="M27 13L28 14L27 13M31 13L32 14L31 13z"/>
<path style="fill:#939598; stroke:none;" d="M27 14L26.4444 16.0556L26.3333 17.0556L26.6944 18.8889L27.6111 20.2222L29 21L28.9444 19.5L28.8611 18.9444L28.7778 17.0556L28.8333 15.5L29 14L27 14z"/>
<path style="fill:#000000; stroke:none;" d="M29 15L28.5 17L28.3333 17.5556L29 19L30.1111 18.2222L30.2222 17.7222L30.4444 17L30.1111 15.7778L29 15M27 20L28 21L27 20M31 20L32 21L31 20z"/>
<path style="fill:#939598; stroke:none;" d="M30 21L30.1667 22.5L30.2222 24.0556L30.1389 25.9444L30.0556 26.5L30 28L31.1389 27.2222L31.3333 26.6944L31.7222 25.8889L31.8889 24.9722L31.9444 24.0278L31.7222 22.3333L31.1389 21.3611L30 21z"/>
<path style="fill:#5d655b; stroke:none;" d="M221 21.3889L219 21.8056L217 22.2222L216 22.4722L214 23.2778L212.028 24.4722L211.083 25.25L209.472 27.0278L208.278 29L207.444 31L207.167 32L206.639 34L206.389 35L206.167 37L206.389 39L206.639 40L207.167 42L207.472 43L208.5 45L210.083 46.9167L212 48.5278L214 49.7222L216 50.5278L217 50.7778L219 51.1944L221 51.6111L223 51.8333L225 51.6111L227 51.1944L229 50.7778L230 50.5278L232 49.7222L234 48.5278L235.917 46.9167L237.5 45L238.583 43L239.306 41L239.583 40L239.917 38L239.972 37L239.917 35L239.778 34L239.583 33L238.972 31L238.167 29L237.722 28.0278L236.528 26.2222L235.75 25.4167L233.972 24.0833L232 23.0833L230 22.4167L229 22.1944L227 21.8056L225 21.3889L223 21.1667L221 21.3889M260 41L259.889 42.5L259.278 44.0278L258.667 44.9167L256.972 46.5L255 47.5L254 47.7222L253 47.8333L251 47.6111L249 47.1389L248 46.8611L247.056 46.6389L245.5 46.25L244 46L243.583 47.4444L243.25 48.5556L243 50L245.056 50.5833L247 50.9444L249 51.2222L251 51.6111L253 51.8333L254 51.75L255 51.6111L257 51.1944L259 50.7778L260 50.5L261.972 49.5L263.694 47.9167L264.889 46L265.5 44L265.5 42L265.25 41L264.361 39.0278L262.889 37.25L261.972 36.5L260 35.4167L259 35.0278L258 34.6667L256 33.9722L255 33.5833L253 32.5278L252.056 31.8611L251.056 31.2222L250.5 30.75L249 30L249 28L250.5 27.3056L251.056 26.9444L253 25.9167L254 25.5L256 25.1667L257 25.25L259 25.6111L260.944 25.8611L262.5 25.7222L264 25L264 23L263 22L261.5 21.9722L259.944 21.7778L258 21.3889L257 21.25L256 21.1667L255 21.25L254 21.3889L252 21.8056L250 22.2222L249 22.5L247.083 23.5L246.25 24.25L245.5 25.0833L244.5 27L244.111 29L244.25 31L244.5 32L245.5 33.9167L246.25 34.75L247.083 35.5L249 36.5833L251 37.3333L253 38.0278L254 38.3889L256 39.25L256.944 39.75L257.944 40.1667L258.5 40.5L260 41z"/>
<path style="fill:#000000; stroke:none;" d="M29 22L28.3333 23.4444L28.5 24L29 26L30.1111 25.2222L30.4444 24L30.2222 23.2778L30.1111 22.7778L29 22z"/>
<path style="fill:#5d655b; stroke:none;" d="M271 22L271 51L292 51L292 47L277 47L277 38L291 38L291 34L277 34L277 26L291 26L291 22L271 22M297 22L297 51L303 51L303 40L305.056 40L307 39.9722L308 39.9167L310 39.6111L311 39.3611L313 38.8333L314 38.5556L315.972 37.7222L316.917 37.1389L317.75 36.5278L318.5 35.75L319.5 33.9722L319.75 33L319.972 31L319.917 29L319.5 27.0278L319.056 26.0833L318.5 25.25L316.917 23.8611L315.972 23.2778L314 22.4722L312 22.0833L311 22.0278L310 22L308 22L307 22L304 22L297 22M325 22L325 51L331 51L331 38L347 38L347 51L353 51L353 22L347 22L347 34L331 34L331 22L325 22z"/>
<path style="fill:#747a75; stroke:none;" d="M32 23L32 26L32.6944 25.25L32.6944 24.1944L32.6944 23.75L32 23z"/>
<path style="fill:#000000; stroke:none;" d="M220 25.4167L218 26.1111L217.028 26.6389L216.083 27.3056L214.5 29.0278L213.417 31L212.694 33L212.417 34L212.083 36L212.056 37L212.083 38L212.472 40L213.278 42L213.861 43L214.472 43.9722L216.083 45.6944L218 46.8889L220 47.5833L222 47.9167L223 47.9722L225 47.9167L226 47.75L227 47.5L228 47.0556L229.972 45.75L230.889 44.9167L231.694 43.9722L232.889 42L233.583 40L233.917 38L233.972 37L233.917 35L233.583 33L233.278 32L232.361 30L231.694 29.0278L230.889 28.0833L229 26.5L227 25.5L225 25.0833L223 25.0278L221 25.2222L220 25.4167M303 25L303 36L306.056 36L308 35.9722L309 35.9167L310.972 35.5L311.917 35.0556L313.5 33.75L314.417 31.9722L314.417 30L313.5 28.0833L311.917 26.5L310.972 25.9444L310 25.5L308 25.0833L307 25.0278L305.056 25L303 25z"/>
<path style="fill:#5d655b; stroke:none;" d="M7 41L7 43L12 48L14 50L15 51L17 53L18 53.9722L19 54.8889L19.9444 55.6667L21.5 56.6389L23 57L23.7222 55.5L23.75 54.9444L23.9444 53.9444L23.9722 53L24 51L24 49L24 45L21 45L21 51L18.9444 48.9444L17.9444 47.9444L16 46.0278L15.0556 45.1111L14.0556 44.3056L13.5 43.7778L12 43L12 41L13.5 40.2222L14.0556 39.6944L15.0556 38.8889L16 37.9722L17.9444 36.0556L18.9444 35.0556L21 33L21 38L24 38L24 27L22.5 27.1111L20.9444 27.7222L19 29.1111L18 30.0278L17 31L15 33L14 34L12 36L7 41z"/>
<path style="fill:#000000; stroke:none;" d="M27 27L28 28L27 27M31 27L32 28L31 27z"/>
<path style="fill:#939598; stroke:none;" d="M27 28L26.4444 30.0556L26.3333 31.0556L26.6944 32.8889L27.6111 34.2222L29 35L28.9444 33.5L28.8611 32.9444L28.7778 31.0556L28.8333 29.5L29 28L27 28z"/>
<path style="fill:#000000; stroke:none;" d="M29 29L28.3333 30.4444L28.5 31L29 33L30.1111 32.2222L30.4444 31L30.2222 30.2778L30.1111 29.7778L29 29M27 34L28 35L27 34M31 34L32 35L31 34z"/>
<path style="fill:#939598; stroke:none;" d="M29 35L29 36L31 37L31 39L29.5 39.7778L28.0556 41.1111L26.7222 43L26.2222 45L26.6667 46.8889L27.6111 48.2222L29 49L28.9444 47.5L28.8611 46.9444L28.8056 45L28.9444 44.0278L29.6111 42.3333L30.6111 41.3611L32 41L32 35L29 35z"/>
<path style="fill:#000000; stroke:none;" d="M29 36L28.5 38L28.3333 38.5556L29 40L30.1111 39.2222L30.4444 38L30.2222 37.2778L30.1111 36.7778L29 36z"/>
<path style="fill:#787d7a; stroke:none;" d="M32 36L32 40L32.7222 39.2222L32.8889 38L32.7222 37.2778L32.7222 36.7778L32 36z"/>
<path style="fill:#5d655b; stroke:none;" d="M15 40L15 43L24 43L24 40L15 40z"/>
<path style="fill:#000000; stroke:none;" d="M27 41L28 42L27 41z"/>
<path style="fill:#787d7a; stroke:none;" d="M29 41L29 43L30 43L31 41L29 41z"/>
<path style="fill:#000000; stroke:none;" d="M31 41L32 42L31 41M29 43L28.5 45L28.3333 45.5556L29 47L30.1111 46.2222L30.2222 45.7222L30.4444 45L30.1111 43.7778L29 43z"/>
<path style="fill:#919396; stroke:none;" d="M96 45L96 46.5L96.1111 48.0556L96.3333 48.9722L96.7222 49.8889L98.1111 51.2778L99.0278 51.6667L100 51.8611L101 51.8611L102.889 51.2778L104.278 49.8889L104.667 48.9722L104.889 48.0556L105 46.5L105 45L103.5 44.1944L101.944 43.75L101 43.6389L99.0556 43.75L97.5 44.1944L96 45M158 45L156.5 44.1944L154.944 43.6944L154 43.5L153 43.4722L151.028 43.9722L149.333 45.25L148.75 46.0833L148.361 47.9722L148.944 49.75L149.5 50.5L151.083 51.5L153 51.8889L154.972 51.6667L155.889 51.2778L157.278 49.8889L157.667 48.9722L157.889 48.0556L158 46.5L158 45z"/>
<path style="fill:#000000; stroke:none;" d="M4 47L5 48L4 47M7 47L8 48L7 47z"/>
<path style="fill:#939598; stroke:none;" d="M2 48L2 50L5 50L5 48L2 48z"/>
<path style="fill:#747a75; stroke:none;" d="M6.33333 48.6667L6.33333 49.3333L6.66667 49.3333L6.66667 48.6667L6.33333 48.6667z"/>
<path style="fill:#939598; stroke:none;" d="M7 48L7.36111 49.1667L7.69444 49.4444L8.22222 50.0556L9.41667 51.1944L10.5556 52.3056L10.8333 52.6389L12 53L11.8889 51.5L11.2778 50.0556L9.94444 48.7222L8.5 48.1111L7 48z"/>
<path style="fill:#000000; stroke:none;" d="M27 48L28 49L27 48M31 48L32 49L31 48z"/>
<path style="fill:#939598; stroke:none;" d="M30 49L30.1389 50.5L30 52L29.5833 53.5L29 55L30 56L32 55L32 52.9444L31.9722 51.9722L31.8889 51.1111L31.7222 50.3333L31.1389 49.3611L30 49z"/>
<path style="fill:#000000; stroke:none;" d="M0 50L0 75L25 75L24.2222 73.5L23.6944 72.9444L22.8889 71.9444L21.9722 71L20 69L18 67L13 62L8 57L6 55L4 53.0278L3.05556 52.1111L2.05556 51.3056L1.5 50.7778L0 50M4 50L5 51L4 50M7 50L7 53L10 53L10 50L7 50M29 50L28.3333 51.4444L28.5 52L29 54L30.1111 53.2222L30.4444 52L30.2222 51.2778L30.1111 50.7778L29 50z"/>
<path style="fill:#747a75; stroke:none;" d="M32 51L32 54L32.6944 53.25L32.6944 52.1944L32.6944 51.75L32 51z"/>
<path style="fill:#000000; stroke:none;" d="M12 52L13 53L12 52z"/>
<path style="fill:#747a75; stroke:none;" d="M10.6667 54.3333L11 54.6667L11.3333 54.6667L11 54.3333L10.6667 54.3333z"/>
<path style="fill:#000000; stroke:none;" d="M9 55L10 56L9 55z"/>
<path style="fill:#939598; stroke:none;" d="M10 55L10.1111 56.5L10.7222 57.9444L12.0556 59.2778L13.5 59.8889L15 60L14.6389 58.8333L14.3056 58.5556L13.7778 57.9444L12.5833 56.8056L11.4444 55.6944L11.1667 55.3611L10 55z"/>
<path style="fill:#000000; stroke:none;" d="M12 55L12 58L15 58L15 55L12 55M27 55L28 56L27 55M31 55L32 56L31 55z"/>
<path style="fill:#939598; stroke:none;" d="M27 56L26.2778 57.5L26.1667 59.0556L26.6667 60.8889L27.6111 62.2222L29 63L28.9444 61.5L28.8611 60.9444L28.7778 59.0556L28.8333 57.5L29 56L27 56z"/>
<path style="fill:#000000; stroke:none;" d="M17 57L18 58L17 57M29 57L28.3333 58.4444L28.5 59L29 61L30.1111 60.2222L30.4444 59L30.2222 58.2778L30.1111 57.7778L29 57z"/>
<path style="fill:#939598; stroke:none;" d="M16 58L16 60L17.4722 60.1111L18.75 60.6944L19.9444 61.7778L20.5556 62.3056L20.8333 62.6389L22 63L21.8889 61.5L21.2778 60.0556L19.8889 58.7222L19.0278 58.3333L17.5 58.0278L16 58z"/>
<path style="fill:#684f40; stroke:none;" d="M135 59L135 64L137.056 63.4167L138.944 63.0833L141 63L141 67L141 69L140.917 71L140.778 71.9444L140.583 72.9444L140 75L145 75L144.417 72.9444L144.222 71.9444L144.083 71L144 69L144 67L144 63L146.056 63.0833L147.944 63.4167L150 64L150 59L147.944 59.5833L146.944 59.7778L146 59.9167L144 60L143 60L142 60L141 60L139 59.9167L138.056 59.7778L137.056 59.5833L135 59M213 59L213 64L214.5 63.75L216 63.3889L216.944 63.2222L217.5 63.0833L219 63L219 75L224 75L223.417 72.9444L223.222 71.9444L223.083 71L223 69L223 67L223 63L225.056 63.0833L226.944 63.4167L229 64L229 59L227.5 59.4167L225.944 59.7778L225 59.9167L223 60L221 60L219 59.9722L218 59.9167L216.056 59.6111L214.5 59.25L213 59z"/>
<path style="fill:#000000; stroke:none;" d="M14 60L15 61L14 60M17 60L17 63L20 63L20 60L17 60z"/>
<path style="fill:#684f40; stroke:none;" d="M69 73L68.6944 71.5556L68.3333 71L67 69L65.9167 69.6944L64.7222 70.6111L62.9722 71.5L61 71.8056L59.0278 71.2778L57.2778 70L56.4722 69.2778L56.0833 68.7778L55 68L56.4722 65.9722L58.0833 64.3333L60 63.3611L61 63.2222L63 63.6111L63.9444 64L64.9444 64.3889L65.5 64.6667L67 65L68.1667 63L68.5278 62.4444L69 61L67.5 60.75L65.9444 60.3889L64 60.0833L62 60L60 60L58 60.0833L56.0278 60.5L55.0833 60.9444L53.5 62.25L52.5 64.0278L52.0833 66L52 68L52.1111 70L52.3333 70.9722L52.7222 71.9167L54.1111 73.5L55.0278 74.0556L56 74.5L58 74.9167L60 75L61 75L62 75L64 74.9167L65.9444 74.5556L67.5 73.9722L69 73M77 60.5L75.1111 61.5L74.3056 62.25L73.1111 64.0278L72.4444 66L72.3056 67L72.4444 69L72.7222 70L73.1111 70.9722L73.6389 71.9167L75.1111 73.5L76.0278 74.0556L78 74.75L79 74.9167L81 75L82 75L83 75L85 74.9167L86 74.75L87 74.5L88.8889 73.5L89.6944 72.75L90.8889 70.9722L91.5556 69L91.6944 68L91.5556 66L91.2778 65L90.8889 64.0278L90.3611 63.0833L88.8889 61.5L87.9722 60.9444L86 60.25L85 60.0833L83 60L82 60L81 60L79 60.0833L78 60.25L77 60.5M95 60L95.5833 62.0556L95.7778 63.0556L95.9167 64L96 66L96 67L96 68L96 69L95.9167 71L95.7778 71.9444L95.5833 72.9444L95 75L100 75L99.4167 72.9444L99.2222 71.9444L99.0833 71L99 69.0556L99 68.0556L99 66L101.056 68.0556L102.056 69.0556L103.972 71L104.889 71.9444L105.694 72.9444L106.222 73.5L107 75L113 75L112.417 72.9444L112.222 71.9444L112.083 71L112 69L112 68L112 67L112 66L112.083 64L112.222 63.0556L112.417 62.0556L113 60L108 60L108 68L105.944 65.9444L104.944 64.9444L104.028 64L103.111 63.0556L102.306 62.0556L101.778 61.5L101 60L95 60M128 70L125.944 71.3333L124.944 71.6944L124 71.8056L122 71.5278L120.056 70.8056L119.5 70.5L118 70L117.278 71.4444L117.25 72L117 74L118.5 74.4167L120.056 74.7778L121 74.9167L123 75L124 75L125 75L127 74.9167L128.944 74.5556L130.5 73.9722L132 73L132 71.5L131.889 69.9444L131.667 69.0278L131.278 68.1111L130.667 67.3333L128.972 66.3333L128 66.0833L126 65.7778L125 65.5833L123.111 64.9444L122.306 64.4167L121.778 64.1667L121 63L122.5 63L124.056 63.0833L126 63.4722L127.944 64.1944L128.5 64.5L130 65L131.333 63L131.694 62.4444L132 61L130.5 60.75L128.944 60.3889L127 60.0833L126 60.0278L124 60L122 60.0278L120.028 60.3333L118.333 61.3333L117.722 62.1111L117.139 64L117.139 65L117.333 65.9722L117.722 66.8889L119.111 68.2778L120.028 68.6667L121 68.8889L123 69.0278L124 69.0833L125.944 69.4167L128 70M153 60L153.583 62.0556L153.778 63.0556L153.917 64L154 66L154 67L154 68L154 69L153.917 71L153.778 71.9444L153.583 72.9444L153 75L159 75L158.417 72.9444L158.083 71.0556L158 69L162 69L162.333 70.5L162.611 71.0556L163.389 72.9444L163.667 73.5L164 75L170 75L169.472 73.5L169.083 72.9444L168.556 72L167.417 70.5L166 69L167.806 68.0833L168.556 67.5L169.472 65.9167L169.667 64.9722L169.528 63.0556L168.972 61.5L168 60L153 60M173 60L173.583 62.0556L173.778 63.0556L173.917 64L174 66L174 68L174.083 70L174.444 71.9444L175.028 73.5L176 75L188 75L188.972 73.5L189.556 71.9444L189.917 70L190 68L190 66L190.083 64L190.222 63.0556L190.417 62.0556L191 60L185 60L185.583 62.0556L185.778 63.0556L185.917 64L186 66L186 67L186 67.9444L186 71L185 72L179 72L178 71L178 60L173 60M211 73L210.528 71.5556L210.167 71L209 69L207.917 69.6944L207.528 70.0556L206.722 70.6111L205.917 71.0833L204.972 71.5L203 71.8056L201 71.2778L200.028 70.6667L199.139 69.8889L198.056 68L198.056 67L199.139 65.1111L200.028 64.3333L201 63.7222L203 63.2222L205 63.6111L205.944 64L206.944 64.3889L207.5 64.6667L209 65L209.667 63.5556L210.333 62.4444L211 61L209.5 60.75L207.944 60.3889L206 60.0833L205 60.0278L204 60L202 60L200 60.0833L199 60.25L198 60.5L196.111 61.5L195.306 62.25L194.111 64.0278L193.444 66L193.306 67L193.444 69L193.722 70L194.111 70.9722L194.639 71.9167L196.111 73.5L198 74.5L200 74.9167L201 74.9722L202 75L203 75L205 74.9167L207 74.5833L208.944 73.9722L209.5 73.8056L211 73M236 60.5L234.111 61.5L233.306 62.25L232.111 64.0278L231.444 66L231.306 67L231.444 69L231.722 70L232.111 70.9722L232.639 71.9167L234.111 73.5L235.028 74.0556L237 74.75L238 74.9167L240 75L241 75L242 75L244 74.9167L245 74.75L246 74.5L247.889 73.5L248.694 72.75L249.889 70.9722L250.556 69L250.694 68L250.556 66L250.278 65L249.889 64.0278L249.361 63.0833L247.889 61.5L246.972 60.9444L245 60.25L244 60.0833L242 60L241 60L240 60L238 60.0833L237 60.25L236 60.5M254 60L254.583 62.0556L254.778 63.0556L254.917 64L255 66L255 67L255 68L255 69L254.917 71L254.778 71.9444L254.583 72.9444L254 75L259 75L259 69L260.5 69.3611L261.972 70.3333L263.5 71.9722L264.472 73.5L265 75L271 75L270.306 73.5L269.333 72.0556L268.639 71.3056L268.25 70.7778L267 70L268.722 67.9444L269.333 66.9444L269.889 65L269.972 64.0556L270 63.0556L270 61L269 60L254 60M286 71L283.944 71.5833L282.944 71.75L282 71.8333L280 71.5278L279 71.1667L278.056 70.8333L276.5 70.2778L275 70L274.583 71.4444L274.25 72.5556L274 74L275.5 74.4167L277.056 74.7778L278 74.9167L280 75L281 75L282 75L284 74.9722L285 74.8889L286 74.6667L287.889 73.6667L289.25 71.9722L289.583 71L289.528 69.0556L289.139 68.0556L288 66L285.944 66L284.944 65.9722L284 65.9167L282 65.5833L281.056 65.3333L279.5 64.8056L278 64L280.056 63.4444L281.056 63.3056L282 63.3333L283 63.5L284 63.8333L285.944 64.5278L286.5 64.7222L288 65L288.417 63.5556L288.75 62.4444L289 61L286.944 60.4167L285 60.0833L284 60.0278L283 60L281 60L279 60.1111L278 60.3333L277.028 60.7222L275.333 62.1111L274.75 63.0278L274.417 64L274.361 64.9722L274.944 66.75L275.5 67.5L276.25 68.0556L277.083 68.5L279 68.9167L281 69.0833L282.944 69.4444L283.944 69.8611L284.5 70.0278L286 71M302 60L302.583 62.0556L302.778 63.0556L302.917 64L303 66L303 67L303 68L303 69L302.917 71L302.778 71.9444L302.583 72.9444L302 75L308 75L307.417 72.9444L307.222 71.9444L307.083 71L307 69L307 68L307 67L307 66L307.083 64L307.222 63.0556L307.417 62.0556L308 60L302 60M312 60L312 75L317 75L316.417 72.9444L316.222 71.9444L316.083 71L316 69.0556L316 68.0556L316 66L317.472 68.0556L319.083 70L321 71.9722L322 72.8889L324 74.2778L325 74.6667L325.944 74.8889L327.5 75L329 75L329 60L324 60L324.583 62.0556L324.778 63.0556L324.917 64L325 65.9444L325 66.9444L325 69L323.5 67.5L322.028 65.9444L321.222 65L320.389 64L319.611 63.0278L318.778 62.1111L316.972 60.7222L315.056 60.1111L313.5 60L312 60M350 73L349.75 71.5556L349.417 70.4444L349 69L347.75 69.3333L347.333 69.6389L346.556 70.0833L345.778 70.6111L344.917 71.0833L343 71.6667L341 71.5L339.056 70.8056L338.5 70.5L337 70L337 65L338.5 64.5L339.056 64.1944L341 63.5L343 63.3333L344.944 63.8333L345.944 64.1944L346.5 64.5L348 65L349.333 63L349.694 62.4444L350 61L347.944 60.4167L346 60.0833L345 60.0278L344 60L342 60L340 60.0278L338 60.3333L337 60.7222L336.028 61.3333L335.111 62.1111L333.722 64L333.333 65L333.028 67L333.083 69L333.5 70.9722L334.5 72.75L335.25 73.5L337.028 74.5L339 74.9167L341 75L342 75L343 75L345 74.9167L346.944 74.5556L348.5 73.9722L350 73z"/>
<path style="fill:#000000; stroke:none;" d="M22 62L23 63L22 62M27 62L28 63L27 62M31 62L32 63L31 62z"/>
<path style="fill:#6f756f; stroke:none;" d="M20 63L20 65L22 65L22 63L20 63z"/>
<path style="fill:#939598; stroke:none;" d="M30 63L30.6667 64.75L30.8611 65.2778L32 66L32 63L30 63z"/>
<path style="fill:#000000; stroke:none;" d="M79.0278 63.7222L77.3333 65.1111L76.75 66.0278L76.4444 68L77.3333 69.8889L79.0278 71.2778L80 71.6667L81 71.8889L82 71.9444L83 71.8889L84.9722 71.2778L86.6667 69.8889L87.25 68.9722L87.5556 67L86.6667 65.1111L84.9722 63.7222L84 63.3333L83 63.1111L82 63.0556L81 63.1111L79.0278 63.7222M158 63L158 66L160.056 66L161.056 66L162 65.9722L162.944 65.9444L163.944 65.75L164.5 65.7222L166 65L165.222 63.8611L164.694 63.6667L163.889 63.2778L162.972 63.1111L162 63.0278L161.056 63L160.056 63L158 63M238.028 63.7222L236.333 65.1111L235.75 66.0278L235.444 68L236.333 69.8889L238.028 71.2778L239 71.6667L240 71.8889L241 71.9444L242 71.8889L243.972 71.2778L245.667 69.8889L246.25 68.9722L246.556 67L245.667 65.1111L243.972 63.7222L243 63.3333L242 63.1111L241 63.0556L240 63.1111L238.028 63.7222M259 63L259 66L261.056 66L262.056 66L263 65.9722L263.944 65.9444L264.944 65.75L265.5 65.7222L267 65L266.222 63.8611L265.694 63.6667L264.889 63.2778L263.972 63.1111L263 63.0278L262.056 63L261.056 63L259 63M29 64L27 66L27 67L29 69L30 69L32 67L31.2778 65.6111L30.75 65.25L29 64M19 65L20 66L19 65z"/>
<path style="fill:#939598; stroke:none;" d="M20 65L20.1111 66.5L20.7222 67.9444L22.0556 69.2778L23.5 69.8889L25 70L24.6389 68.8333L24.3056 68.5556L23.1944 67.4167L22.0556 66.2222L21.4444 65.6944L21.1667 65.3611L20 65z"/>
<path style="fill:#000000; stroke:none;" d="M22 65L22 68L25 68L25 65L22 65M99 66L99 74L100 75L107 75L106.639 73.5L105.667 71.9444L103.972 70L102.056 68.1111L101.056 67.3056L100.5 66.7778L99 66M316 66L316 74L317 75L324 75L323.222 73.5L322.694 72.9444L321.889 71.9444L320.972 71L319.083 69.0278L317.472 67.3056L317.083 66.7778L316 66z"/>
<path style="fill:#939598; stroke:none;" d="M31 67L30 68L30 70L31.1111 69.25L31.4722 68.1944L31.6111 67.75L31 67z"/>
<path style="fill:#000000; stroke:none;" d="M27.3333 69.6667L27.3333 70.3333L27.6667 70.3333L27.6667 70L27.3333 69.6667M31.3333 69.6667L31.3333 70.3333L31.6667 70.3333L31.6667 70L31.3333 69.6667M158 69L158 74L159 75L164 75L163.889 73.5L163.389 72L162.972 71.0556L162.667 70.5L162 69L158 69M259 69L259 75L265 75L264.722 73.5L264.056 71.9722L263.5 71.1111L261.972 69.7222L260.5 69.1111L259 69M24 70L25 71L24 70z"/>
<path style="fill:#939598; stroke:none;" d="M28 70L26 72L26 73L27.3889 72.6389L27.6944 72.3056L28.2778 71.7778L28.6111 70.75L28 70z"/>
<path style="fill:#000000; stroke:none;" d="M28 73L31 73L30 71L28 72L28 73z"/>
<path style="fill:#684f40; stroke:none;" d="M354 71L354 75L359 75L359 71L354 71z"/>
</svg>
