<?xml version="1.0"?>
<svg width="366.00000000000006" height="83" xmlns="http://www.w3.org/2000/svg" xmlns:svg="http://www.w3.org/2000/svg">
 <g class="layer">
  <title>Layer 1</title>
  <path d="m25,9l0,52l-8,-8l-4,-4l-2,-2l-2,-1.8889l-1,-0.7778l-1,-0.5833l-1,-0.3056l-1,0l-1,0.3056l-1.88889,1.3611l-0.77778,0.9167l-0.58333,0.9722l-0.30556,2l0.88889,2l1.69445,2l1.97222,2l3,3l7,7l3,3l1,1l2,2l1,0.9722l1,0.9167l2,1.3889l2,0.6111l2,0.1111l1,0l0.9444,0l3.0556,0l0,-66l-9,0z" fill="#5d655b" id="svg_2"/>
  <path d="m90,50l-0.25,-1.5l-0.1389,-0.5l-0.3611,-1.5l-0.25,-1.5l-1.5,0.0833l-0.5556,0.1389l-1.9444,0.3889l-2,0.3333l-1,0.1112l-2,0.3333l-2,0.3055l-1,0l-1,-0.1111l-2,-0.3889l-2,-0.3888l-1,-0.2223l-2,-0.6111l-1,-0.3889l-2,-1.0833l-2,-1.5833l-0.9722,-0.9445l-1.7778,-1.9722l-0.75,-1l-1.0833,-2l-0.7223,-2l-0.4722,-2l-0.1111,-1l0.1111,-2l0.1945,-1l0.6111,-2l0.8055,-2l0.4445,-1l1.1944,-1.9722l0.7778,-0.9445l0.8333,-0.8611l1.9167,-1.5278l2,-1.2777l1,-0.5l1,-0.4445l2,-0.6111l1,-0.2222l1,-0.25l2,-0.3056l1,-0.0555l2,-0.0278l2,0.0278l1,0.0555l2,0.3056l1,0.25l1,0.2222l0.9444,0.2778l1,0.25l2.0556,0.6111l0.25,-1.5l0.3611,-1.5l0.1667,-0.9444l0.1389,-0.5556l0.0833,-1.5l-1.5,-0.25l-1.5556,-0.36111l-1.9444,-0.30555l-1,-0.05556l-2,-0.02778l-2,0l-3,0l-2,0l-1,0l-2,0.02778l-1,0.05556l-2,0.30555l-1,0.25l-2,0.52781l-1,0.2777l-1,0.4167l-2,0.9167l-1,0.4722l-2,1.2222l-1,0.7778l-1.9722,1.7778l-0.9445,0.9722l-1.6111,2l-0.6111,1l-0.5833,1l-0.8056,2l-0.4722,2l-0.1944,1l-0.4167,2l-0.1667,1l-0.1111,1l0,1l0.2778,2l0.4167,2l0.4166,2l0.25,1l0.8056,2l1.1111,2l0.6389,0.9722l1.3889,1.8056l0.8055,0.8055l1.8056,1.3889l1.9722,1.1945l1,0.5555l2,0.8889l1,0.3611l2,0.6389l1,0.25l2,0.5l1,0.25l2,0.3056l1,0.0555l2,0.0278l2,0l2,0l1,-0.0278l1,-0.0555l2,-0.3056l1,-0.2222l2,-0.3889l1.9444,-0.4167l2.0556,-0.5833m23,-41l0,42l30,0l0,-5l-22,0l0,-14l19,0l0,-5l-19,0l0,-12l21,0l0,-6l-29,0z" fill="#919396" id="svg_4"/>
  <path d="m192,9l0,25l0,2l0,1l-0.083,2l-0.417,2l-1,1.9722l-1.583,1.6945l-1.917,1.0833l-1,0.3611l-2,0.4167l-2,0l-1,-0.1667l-1.944,-0.2778l-2.056,-0.0833l-0.083,1.5l-0.139,0.5l-0.195,1l-0.583,2l1.5,0.25l1.556,0.3611l1.944,0.3056l1,0.0555l2,0.0278l2,-0.0278l1,-0.0555l2,-0.3334l2,-0.6111l2,-0.8055l1,-0.4445l1.917,-1.1944l1.583,-1.6111l0.583,-0.9445l0.889,-1.9722l0.611,-2l0.195,-1l0.139,-1l0.083,-2l0,-1l0,-1l0,-2l0,-25l-8,0z" fill="#5d655b" id="svg_5"/>
  <path d="m29,11l1,1l-1,-1z" fill="#000000" id="svg_6"/>
  <path d="m30,11l0,3l1.1389,-0.7222l0.1944,-0.5278l0.6667,-1.75l-2,0z" fill="#939598" id="svg_7"/>
  <path d="m27,13l1,1l-1,-1m4,0l1,1l-1,-1z" fill="#000000" id="svg_8"/>
  <path d="m27,14l-0.5556,2.0556l-0.1111,1l0.3611,1.8333l0.9167,1.3333l1.3889,0.7778l-0.0556,-1.5l-0.0833,-0.5556l-0.0833,-1.8888l0.0555,-1.5556l0.1667,-1.5l-2,0z" fill="#939598" id="svg_9"/>
  <path d="m29,15l-0.5,2l-0.1667,0.5556l0.6667,1.4444l1.1111,-0.7778l0.1111,-0.5l0.2222,-0.7222l-0.3333,-1.2222l-1.1111,-0.7778m-2,5l1,1l-1,-1m4,0l1,1l-1,-1z" fill="#000000" id="svg_10"/>
  <path d="m30,21l0.1667,1.5l0.0555,1.5556l-0.0833,1.8888l-0.0833,0.5556l-0.0556,1.5l1.1389,-0.7778l0.1944,-0.5278l0.3889,-0.8055l0.1667,-0.9167l0.0555,-0.9444l-0.2222,-1.6945l-0.5833,-0.9722l-1.1389,-0.3611z" fill="#939598" id="svg_11"/>
  <path d="m221,21.3889l-2,0.4167l-2,0.4166l-1,0.25l-2,0.8056l-1.972,1.1944l-0.945,0.7778l-1.611,1.7778l-1.194,1.9722l-0.834,2l-0.277,1l-0.528,2l-0.25,1l-0.222,2l0.222,2l0.25,1l0.528,2l0.305,1l1.028,2l1.583,1.9167l1.917,1.6111l2,1.1944l2,0.8056l1,0.25l2,0.4166l2,0.4167l2,0.2222l2,-0.2222l2,-0.4167l2,-0.4166l1,-0.25l2,-0.8056l2,-1.1944l1.917,-1.6111l1.583,-1.9167l1.083,-2l0.723,-2l0.277,-1l0.334,-2l0.055,-1l-0.055,-2l-0.139,-1l-0.195,-1l-0.611,-2l-0.805,-2l-0.445,-0.9722l-1.194,-1.8056l-0.778,-0.8055l-1.778,-1.3334l-1.972,-1l-2,-0.6666l-1,-0.2223l-2,-0.3888l-2,-0.4167l-2,-0.2222l-2,0.2222m39,19.6111l-0.111,1.5l-0.611,1.5278l-0.611,0.8889l-1.695,1.5833l-1.972,1l-1,0.2222l-1,0.1111l-2,-0.2222l-2,-0.4722l-1,-0.2778l-0.944,-0.2222l-1.556,-0.3889l-1.5,-0.25l-0.417,1.4444l-0.333,1.1112l-0.25,1.4444l2.056,0.5833l1.944,0.3611l2,0.2778l2,0.3889l2,0.2222l1,-0.0833l1,-0.1389l2,-0.4167l2,-0.4166l1,-0.2778l1.972,-1l1.722,-1.5833l1.195,-1.9167l0.611,-2l0,-2l-0.25,-1l-0.889,-1.9722l-1.472,-1.7778l-0.917,-0.75l-1.972,-1.0833l-1,-0.3889l-1,-0.3611l-2,-0.6945l-1,-0.3889l-2,-1.0555l-0.944,-0.6667l-1,-0.6389l-0.556,-0.4722l-1.5,-0.75l0,-2l1.5,-0.6944l0.556,-0.3612l1.944,-1.0277l1,-0.4167l2,-0.3333l1,0.0833l2,0.3611l1.944,0.25l1.556,-0.1389l1.5,-0.7222l0,-2l-1,-1l-1.5,-0.0278l-1.556,-0.1944l-1.944,-0.3889l-1,-0.1389l-1,-0.0833l-1,0.0833l-1,0.1389l-2,0.4167l-2,0.4166l-1,0.2778l-1.917,1l-0.833,0.75l-0.75,0.8333l-1,1.9167l-0.389,2l0.139,2l0.25,1l1,1.9167l0.75,0.8333l0.833,0.75l1.917,1.0833l2,0.75l2,0.6945l1,0.3611l2,0.8611l0.944,0.5l1,0.4167l0.556,0.3333l1.5,0.5z" fill="#5d655b" id="svg_12"/>
  <path d="m29,22l-0.6667,1.4444l0.1667,0.5556l0.5,2l1.1111,-0.7778l0.3333,-1.2222l-0.2222,-0.7222l-0.1111,-0.5l-1.1111,-0.7778z" fill="#000000" id="svg_13"/>
  <path d="m271,22l0,29l21,0l0,-4l-15,0l0,-9l14,0l0,-4l-14,0l0,-8l14,0l0,-4l-20,0m26,0l0,29l6,0l0,-11l2.056,0l1.944,-0.0278l1,-0.0555l2,-0.3056l1,-0.25l2,-0.5278l1,-0.2777l1.972,-0.8334l0.945,-0.5833l0.833,-0.6111l0.75,-0.7778l1,-1.7778l0.25,-0.9722l0.222,-2l-0.055,-2l-0.417,-1.9722l-0.444,-0.9445l-0.556,-0.8333l-1.583,-1.3889l-0.945,-0.5833l-1.972,-0.8056l-2,-0.3889l-1,-0.0555l-1,-0.0278l-2,0l-1,0l-3,0l-7,0m28,0l0,29l6,0l0,-13l16,0l0,13l6,0l0,-29l-6,0l0,12l-16,0l0,-12l-6,0z" fill="#5d655b" id="svg_14"/>
  <path d="m32,23l0,3l0.6944,-0.75l0,-1.0556l0,-0.4444l-0.6944,-0.75z" fill="#747a75" id="svg_15"/>
  <path d="m220,25.4167l-2,0.6944l-0.972,0.5278l-0.945,0.6667l-1.583,1.7222l-1.083,1.9722l-0.723,2l-0.277,1l-0.334,2l-0.027,1l0.027,1l0.389,2l0.806,2l0.583,1l0.611,0.9722l1.611,1.7222l1.917,1.1945l2,0.6944l2,0.3334l1,0.0555l2,-0.0555l1,-0.1667l1,-0.25l1,-0.4444l1.972,-1.3056l0.917,-0.8333l0.805,-0.9445l1.195,-1.9722l0.694,-2l0.334,-2l0.055,-1l-0.055,-2l-0.334,-2l-0.305,-1l-0.917,-2l-0.667,-0.9722l-0.805,-0.9445l-1.889,-1.5833l-2,-1l-2,-0.4167l-2,-0.0555l-2,0.1944l-1,0.1945m83,-0.4167l0,11l3.056,0l1.944,-0.0278l1,-0.0555l1.972,-0.4167l0.945,-0.4444l1.583,-1.3056l0.917,-1.7778l0,-1.9722l-0.917,-1.9167l-1.583,-1.5833l-0.945,-0.5556l-0.972,-0.4444l-2,-0.4167l-1,-0.0555l-1.944,-0.0278l-2.056,0z" fill="#171820" id="svg_16"/>
  <path d="m7,41l0,2l5,5l2,2l1,1l2,2l1,0.9722l1,0.9167l0.9444,0.7778l1.5556,0.9722l1.5,0.3611l0.7222,-1.5l0.0278,-0.5556l0.1944,-1l0.0278,-0.9444l0.0278,-2l0,-2l0,-4l-3,0l0,6l-2.0556,-2.0556l-1,-1l-1.9444,-1.9166l-0.9444,-0.9167l-1,-0.8055l-0.5556,-0.5278l-1.5,-0.7778l0,-2l1.5,-0.7778l0.5556,-0.5278l1,-0.8055l0.9444,-0.9167l1.9444,-1.9166l1,-1l2.0556,-2.0556l0,5l3,0l0,-11l-1.5,0.1111l-1.5556,0.6111l-1.9444,1.3889l-1,0.9167l-1,0.9722l-2,2l-1,1l-2,2l-5,5z" fill="#5d655b" id="svg_17"/>
  <path d="m27,27l1,1l-1,-1m4,0l1,1l-1,-1z" fill="#000000" id="svg_18"/>
  <path d="m27,28l-0.5556,2.0556l-0.1111,1l0.3611,1.8333l0.9167,1.3333l1.3889,0.7778l-0.0556,-1.5l-0.0833,-0.5556l-0.0833,-1.8888l0.0555,-1.5556l0.1667,-1.5l-2,0z" fill="#939598" id="svg_19"/>
  <path d="m29,29l-0.6667,1.4444l0.1667,0.5556l0.5,2l1.1111,-0.7778l0.3333,-1.2222l-0.2222,-0.7222l-0.1111,-0.5l-1.1111,-0.7778m-2,5l1,1l-1,-1m4,0l1,1l-1,-1z" fill="#000000" id="svg_20"/>
  <path d="m29,35l0,1l2,1l0,2l-1.5,0.7778l-1.4444,1.3333l-1.3334,1.8889l-0.5,2l0.4445,1.8889l0.9444,1.3333l1.3889,0.7778l-0.0556,-1.5l-0.0833,-0.5556l-0.0555,-1.9444l0.1388,-0.9722l0.6667,-1.6945l1,-0.9722l1.3889,-0.3611l0,-6l-3,0z" fill="#939598" id="svg_21"/>
  <path d="m29,36l-0.5,2l-0.1667,0.5556l0.6667,1.4444l1.1111,-0.7778l0.3333,-1.2222l-0.2222,-0.7222l-0.1111,-0.5l-1.1111,-0.7778z" fill="#000000" id="svg_22"/>
  <path d="m32,36l0,4l0.7222,-0.7778l0.1667,-1.2222l-0.1667,-0.7222l0,-0.5l-0.7222,-0.7778z" fill="#787d7a" id="svg_23"/>
  <path d="m15,40l0,3l9,0l0,-3l-9,0z" fill="#5d655b" id="svg_24"/>
  <path d="m27,41l1,1l-1,-1z" fill="#000000" id="svg_25"/>
  <path d="m29,41l0,2l1,0l1,-2l-2,0z" fill="#787d7a" id="svg_26"/>
  <path d="m31,41l1,1l-1,-1m-2,2l-0.5,2l-0.1667,0.5556l0.6667,1.4444l1.1111,-0.7778l0.1111,-0.5l0.2222,-0.7222l-0.3333,-1.2222l-1.1111,-0.7778z" fill="#000000" id="svg_27"/>
  <path d="m96,45l0,1.5l0.1111,1.5556l0.2222,0.9166l0.3889,0.9167l1.3889,1.3889l0.9167,0.3889l0.9722,0.1944l1,0l1.889,-0.5833l1.389,-1.3889l0.389,-0.9167l0.222,-0.9166l0.111,-1.5556l0,-1.5l-1.5,-0.8056l-1.556,-0.4444l-0.944,-0.1111l-1.9444,0.1111l-1.5556,0.4444l-1.5,0.8056m62,0l-1.5,-0.8056l-1.556,-0.5l-0.944,-0.1944l-1,-0.0278l-1.972,0.5l-1.695,1.2778l-0.583,0.8333l-0.389,1.8889l0.583,1.7778l0.556,0.75l1.583,1l1.917,0.3889l1.972,-0.2222l0.917,-0.3889l1.389,-1.3889l0.389,-0.9167l0.222,-0.9166l0.111,-1.5556l0,-1.5z" fill="#919396" id="svg_28"/>
  <path d="m4,47l1,1l-1,-1m3,0l1,1l-1,-1z" fill="#000000" id="svg_29"/>
  <path d="m2,48l0,2l3,0l0,-2l-3,0z" fill="#939598" id="svg_30"/>
  <path d="m6.33333,48.6667l0,0.6666l0.33334,0l0,-0.6666l-0.33334,0z" fill="#747a75" id="svg_31"/>
  <path d="m7,48l0.36111,1.1667l0.33333,0.2777l0.52778,0.6112l1.19445,1.1388l1.13893,1.1112l0.2777,0.3333l1.1667,0.3611l-0.1111,-1.5l-0.6111,-1.4444l-1.33336,-1.3334l-1.44444,-0.6111l-1.5,-0.1111z" fill="#939598" id="svg_32"/>
  <path d="m27,48l1,1l-1,-1m4,0l1,1l-1,-1z" fill="#000000" id="svg_33"/>
  <path d="m30,49l0.1389,1.5l-0.1389,1.5l-0.4167,1.5l-0.5833,1.5l1,1l2,-1l0,-2.0556l-0.0278,-0.9722l-0.0833,-0.8611l-0.1667,-0.7778l-0.5833,-0.9722l-1.1389,-0.3611z" fill="#939598" id="svg_34"/>
  <path d="m32,51l0,3l0.6944,-0.75l0,-1.0556l0,-0.4444l-0.6944,-0.75z" fill="#747a75" id="svg_36"/>
  <path d="m12,52l1,1l-1,-1z" fill="#000000" id="svg_37"/>
  <path d="m10.6667,54.3333l0.3333,0.3334l0.3333,0l-0.3333,-0.3334l-0.3333,0z" fill="#747a75" id="svg_38"/>
  <path d="m9,55l1,1l-1,-1z" fill="#000000" id="svg_39"/>
  <path d="m10,55l0.1111,1.5l0.6111,1.4444l1.3334,1.3334l1.4444,0.6111l1.5,0.1111l-0.3611,-1.1667l-0.3333,-0.2777l-0.5278,-0.6112l-1.1945,-1.1388l-1.1389,-1.1112l-0.2777,-0.3333l-1.1667,-0.3611z" fill="#939598" id="svg_40"/>
  <path d="m12,55l0,3l3,0l0,-3l-3,0m15,0l1,1l-1,-1m4,0l1,1l-1,-1z" fill="#000000" id="svg_41"/>
  <path d="m27,56l-0.7222,1.5l-0.1111,1.5556l0.5,1.8333l0.9444,1.3333l1.3889,0.7778l-0.0556,-1.5l-0.0833,-0.5556l-0.0833,-1.8888l0.0555,-1.5556l0.1667,-1.5l-2,0z" fill="#939598" id="svg_42"/>
  <path d="m17,57l1,1l-1,-1m12,0l-0.6667,1.4444l0.1667,0.5556l0.5,2l1.1111,-0.7778l0.3333,-1.2222l-0.2222,-0.7222l-0.1111,-0.5l-1.1111,-0.7778z" fill="#000000" id="svg_43"/>
  <path d="m16,58l0,2l1.4722,0.1111l1.2778,0.5833l1.1944,1.0834l0.6112,0.5278l0.2777,0.3333l1.1667,0.3611l-0.1111,-1.5l-0.6111,-1.4444l-1.3889,-1.3334l-0.8611,-0.3889l-1.5278,-0.3055l-1.5,-0.0278z" fill="#939598" id="svg_44"/>
  <path d="m135,59l0,5l2.056,-0.5833l1.888,-0.3334l2.056,-0.0833l0,4l0,2l-0.083,2l-0.139,0.9444l-0.195,1l-0.583,2.0556l5,0l-0.583,-2.0556l-0.195,-1l-0.139,-0.9444l-0.083,-2l0,-2l0,-4l2.056,0.0833l1.888,0.3334l2.056,0.5833l0,-5l-2.056,0.5833l-1,0.1945l-0.944,0.1389l-2,0.0833l-1,0l-1,0l-1,0l-2,-0.0833l-0.944,-0.1389l-1,-0.1945l-2.056,-0.5833m78,0l0,5l1.5,-0.25l1.5,-0.3611l0.944,-0.1667l0.556,-0.1389l1.5,-0.0833l0,12l5,0l-0.583,-2.0556l-0.195,-1l-0.139,-0.9444l-0.083,-2l0,-2l0,-4l2.056,0.0833l1.888,0.3334l2.056,0.5833l0,-5l-1.5,0.4167l-1.556,0.3611l-0.944,0.1389l-2,0.0833l-2,0l-2,-0.0278l-1,-0.0555l-1.944,-0.3056l-1.556,-0.3611l-1.5,-0.25z" fill="#684f40" id="svg_45"/>
  <path d="m14,60l1,1l-1,-1m3,0l0,3l3,0l0,-3l-3,0z" fill="#000000" id="svg_46"/>
  <path d="m69,73l-0.3056,-1.4444l-0.3611,-0.5556l-1.3333,-2l-1.0833,0.6944l-1.1945,0.9167l-1.75,0.8889l-1.9722,0.3056l-1.9722,-0.5278l-1.75,-1.2778l-0.8056,-0.7222l-0.3889,-0.5l-1.0833,-0.7778l1.4722,-2.0278l1.6111,-1.6389l1.9167,-0.9722l1,-0.1389l2,0.3889l0.9444,0.3889l1,0.3889l0.5556,0.2778l1.5,0.3333l1.1667,-2l0.3611,-0.5556l0.4722,-1.4444l-1.5,-0.25l-1.5556,-0.3611l-1.9444,-0.3056l-2,-0.0833l-2,0l-2,0.0833l-1.9722,0.4167l-0.9445,0.4444l-1.5833,1.3056l-1,1.7778l-0.4167,1.9722l-0.0833,2l0.1111,2l0.2222,0.9722l0.3889,0.9445l1.3889,1.5833l0.9167,0.5556l0.9722,0.4444l2,0.4167l2,0.0833l1,0l1,0l2,-0.0833l1.9444,-0.3611l1.5556,-0.5834l1.5,-0.9722m8,-12.5l-1.8889,1l-0.8055,0.75l-1.1945,1.7778l-0.6667,1.9722l-0.1388,1l0.1388,2l0.2778,1l0.3889,0.9722l0.5278,0.9445l1.4722,1.5833l0.9167,0.5556l1.9722,0.6944l1,0.1667l2,0.0833l1,0l1,0l2,-0.0833l1,-0.1667l1,-0.25l1.8889,-1l0.8055,-0.75l1.1945,-1.7778l0.6667,-1.9722l0.1388,-1l-0.1388,-2l-0.2778,-1l-0.3889,-0.9722l-0.5278,-0.9445l-1.4722,-1.5833l-0.9167,-0.5556l-1.9722,-0.6944l-1,-0.1667l-2,-0.0833l-1,0l-1,0l-2,0.0833l-1,0.1667l-1,0.25m18,-0.5l0.5833,2.0556l0.1945,1l0.1389,0.9444l0.0833,2l0,1l0,1l0,1l-0.0833,2l-0.1389,0.9444l-0.1945,1l-0.5833,2.0556l5,0l-0.5833,-2.0556l-0.1945,-1l-0.1389,-0.9444l-0.0833,-1.9444l0,-1l0,-2.0556l2.056,2.0556l1,1l1.916,1.9444l0.917,0.9444l0.805,1l0.528,0.5556l0.778,1.5l6,0l-0.583,-2.0556l-0.195,-1l-0.139,-0.9444l-0.083,-2l0,-1l0,-1l0,-1l0.083,-2l0.139,-0.9444l0.195,-1l0.583,-2.0556l-5,0l0,8l-2.056,-2.0556l-1,-1l-0.916,-0.9444l-0.917,-0.9444l-0.805,-1l-0.528,-0.5556l-0.778,-1.5l-6,0m33,10l-2.056,1.3333l-1,0.3611l-0.944,0.1112l-2,-0.2778l-1.944,-0.7222l-0.556,-0.3056l-1.5,-0.5l-0.722,1.4444l-0.028,0.5556l-0.25,2l1.5,0.4167l1.556,0.3611l0.944,0.1389l2,0.0833l1,0l1,0l2,-0.0833l1.944,-0.3611l1.556,-0.5834l1.5,-0.9722l0,-1.5l-0.111,-1.5556l-0.222,-0.9166l-0.389,-0.9167l-0.611,-0.7778l-1.695,-1l-0.972,-0.25l-2,-0.3055l-1,-0.1945l-1.889,-0.6389l-0.805,-0.5277l-0.528,-0.25l-0.778,-1.1667l1.5,0l1.556,0.0833l1.944,0.3889l1.944,0.7222l0.556,0.3056l1.5,0.5l1.333,-2l0.361,-0.5556l0.306,-1.4444l-1.5,-0.25l-1.556,-0.3611l-1.944,-0.3056l-1,-0.0555l-2,-0.0278l-2,0.0278l-1.972,0.3055l-1.695,1l-0.611,0.7778l-0.583,1.8889l0,1l0.194,0.9722l0.389,0.9167l1.389,1.3889l0.917,0.3889l0.972,0.2222l2,0.1389l1,0.0555l1.944,0.3334l2.056,0.5833m25,-10l0.583,2.0556l0.195,1l0.139,0.9444l0.083,2l0,1l0,1l0,1l-0.083,2l-0.139,0.9444l-0.195,1l-0.583,2.0556l6,0l-0.583,-2.0556l-0.334,-1.8888l-0.083,-2.0556l4,0l0.333,1.5l0.278,0.5556l0.778,1.8888l0.278,0.5556l0.333,1.5l6,0l-0.528,-1.5l-0.389,-0.5556l-0.527,-0.9444l-1.139,-1.5l-1.417,-1.5l1.806,-0.9167l0.75,-0.5833l0.916,-1.5833l0.195,-0.9445l-0.139,-1.9166l-0.556,-1.5556l-0.972,-1.5l-15,0m20,0l0.583,2.0556l0.195,1l0.139,0.9444l0.083,2l0,2l0.083,2l0.361,1.9444l0.584,1.5556l0.972,1.5l12,0l0.972,-1.5l0.584,-1.5556l0.361,-1.9444l0.083,-2l0,-2l0.083,-2l0.139,-0.9444l0.195,-1l0.583,-2.0556l-6,0l0.583,2.0556l0.195,1l0.139,0.9444l0.083,2l0,1l0,0.9444l0,3.0556l-1,1l-6,0l-1,-1l0,-11l-5,0m38,13l-0.472,-1.4444l-0.361,-0.5556l-1.167,-2l-1.083,0.6944l-0.389,0.3612l-0.806,0.5555l-0.805,0.4722l-0.945,0.4167l-1.972,0.3056l-2,-0.5278l-0.972,-0.6111l-0.889,-0.7778l-1.083,-1.8889l0,-1l1.083,-1.8889l0.889,-0.7778l0.972,-0.6111l2,-0.5l2,0.3889l0.944,0.3889l1,0.3889l0.556,0.2778l1.5,0.3333l0.667,-1.4444l0.666,-1.1112l0.667,-1.4444l-1.5,-0.25l-1.556,-0.3611l-1.944,-0.3056l-1,-0.0555l-1,-0.0278l-2,0l-2,0.0833l-1,0.1667l-1,0.25l-1.889,1l-0.805,0.75l-1.195,1.7778l-0.667,1.9722l-0.138,1l0.138,2l0.278,1l0.389,0.9722l0.528,0.9445l1.472,1.5833l1.889,1l2,0.4167l1,0.0555l1,0.0278l1,0l2,-0.0833l2,-0.3334l1.944,-0.6111l0.556,-0.1666l1.5,-0.8056m25,-12.5l-1.889,1l-0.805,0.75l-1.195,1.7778l-0.667,1.9722l-0.138,1l0.138,2l0.278,1l0.389,0.9722l0.528,0.9445l1.472,1.5833l0.917,0.5556l1.972,0.6944l1,0.1667l2,0.0833l1,0l1,0l2,-0.0833l1,-0.1667l1,-0.25l1.889,-1l0.805,-0.75l1.195,-1.7778l0.667,-1.9722l0.138,-1l-0.138,-2l-0.278,-1l-0.389,-0.9722l-0.528,-0.9445l-1.472,-1.5833l-0.917,-0.5556l-1.972,-0.6944l-1,-0.1667l-2,-0.0833l-1,0l-1,0l-2,0.0833l-1,0.1667l-1,0.25m18,-0.5l0.583,2.0556l0.195,1l0.139,0.9444l0.083,2l0,1l0,1l0,1l-0.083,2l-0.139,0.9444l-0.195,1l-0.583,2.0556l5,0l0,-6l1.5,0.3611l1.472,0.9722l1.528,1.6389l0.972,1.5278l0.528,1.5l6,0l-0.694,-1.5l-0.973,-1.4444l-0.694,-0.75l-0.389,-0.5278l-1.25,-0.7778l1.722,-2.0556l0.611,-1l0.556,-1.9444l0.083,-0.9444l0.028,-1l0,-2.0556l-1,-1l-15,0m32,11l-2.056,0.5833l-1,0.1667l-0.944,0.0833l-2,-0.3055l-1,-0.3611l-0.944,-0.3334l-1.556,-0.5555l-1.5,-0.2778l-0.417,1.4444l-0.333,1.1112l-0.25,1.4444l1.5,0.4167l1.556,0.3611l0.944,0.1389l2,0.0833l1,0l1,0l2,-0.0278l1,-0.0833l1,-0.2222l1.889,-1l1.361,-1.6945l0.333,-0.9722l-0.055,-1.9444l-0.389,-1l-1.139,-2.0556l-2.056,0l-1,-0.0278l-0.944,-0.0555l-2,-0.3334l-0.944,-0.25l-1.556,-0.5277l-1.5,-0.8056l2.056,-0.5556l1,-0.1388l0.944,0.0277l1,0.1667l1,0.3333l1.944,0.6945l0.556,0.1944l1.5,0.2778l0.417,-1.4444l0.333,-1.1112l0.25,-1.4444l-2.056,-0.5833l-1.944,-0.3334l-1,-0.0555l-1,-0.0278l-2,0l-2,0.1111l-1,0.2222l-0.972,0.3889l-1.695,1.3889l-0.583,0.9167l-0.333,0.9722l-0.056,0.9722l0.583,1.7778l0.556,0.75l0.75,0.5556l0.833,0.4444l1.917,0.4167l2,0.1666l1.944,0.3611l1,0.4167l0.556,0.1667l1.5,0.9722m16,-11l0.583,2.0556l0.195,1l0.139,0.9444l0.083,2l0,1l0,1l0,1l-0.083,2l-0.139,0.9444l-0.195,1l-0.583,2.0556l6,0l-0.583,-2.0556l-0.195,-1l-0.139,-0.9444l-0.083,-2l0,-1l0,-1l0,-1l0.083,-2l0.139,-0.9444l0.195,-1l0.583,-2.0556l-6,0m10,0l0,15l5,0l-0.583,-2.0556l-0.195,-1l-0.139,-0.9444l-0.083,-1.9444l0,-1l0,-2.0556l1.472,2.0556l1.611,1.9444l1.917,1.9722l1,0.9167l2,1.3889l1,0.3889l0.944,0.2222l1.556,0.1111l1.5,0l0,-15l-5,0l0.583,2.0556l0.195,1l0.139,0.9444l0.083,1.9444l0,1l0,2.0556l-1.5,-1.5l-1.472,-1.5556l-0.806,-0.9444l-0.833,-1l-0.778,-0.9722l-0.833,-0.9167l-1.806,-1.3889l-1.916,-0.6111l-1.556,-0.1111l-1.5,0m38,13l-0.25,-1.4444l-0.333,-1.1112l-0.417,-1.4444l-1.25,0.3333l-0.417,0.3056l-0.777,0.4444l-0.778,0.5278l-0.861,0.4722l-1.917,0.5834l-2,-0.1667l-1.944,-0.6944l-0.556,-0.3056l-1.5,-0.5l0,-5l1.5,-0.5l0.556,-0.3056l1.944,-0.6944l2,-0.1667l1.944,0.5l1,0.3611l0.556,0.3056l1.5,0.5l1.333,-2l0.361,-0.5556l0.306,-1.4444l-2.056,-0.5833l-1.944,-0.3334l-1,-0.0555l-1,-0.0278l-2,0l-2,0.0278l-2,0.3055l-1,0.3889l-0.972,0.6111l-0.917,0.7778l-1.389,1.8889l-0.389,1l-0.305,2l0.055,2l0.417,1.9722l1,1.7778l0.75,0.75l1.778,1l1.972,0.4167l2,0.0833l1,0l1,0l2,-0.0833l1.944,-0.3611l1.556,-0.5834l1.5,-0.9722z" fill="#684f40" id="svg_47"/>
  <path d="m22,62l1,1l-1,-1m5,0l1,1l-1,-1m4,0l1,1l-1,-1z" fill="#000000" id="svg_48"/>
  <path d="m20,63l0,2l2,0l0,-2l-2,0z" fill="#6f756f" id="svg_49"/>
  <path d="m30,63l0.6667,1.75l0.1944,0.5278l1.1389,0.7222l0,-3l-2,0z" fill="#939598" id="svg_50"/>
  <path d="m79.0278,63.7222l-1.6945,1.3889l-0.5833,0.9167l-0.3056,1.9722l0.8889,1.8889l1.6945,1.3889l0.9722,0.3889l1,0.2222l1,0.0555l1,-0.0555l1.9722,-0.6111l1.6945,-1.3889l0.5833,-0.9167l0.3056,-1.9722l-0.8889,-1.8889l-1.6945,-1.3889l-0.9722,-0.3889l-1,-0.2222l-1,-0.0555l-1,0.0555l-1.9722,0.6111m78.9722,-0.7222l0,3l2.056,0l1,0l0.944,-0.0278l0.944,-0.0278l1,-0.1944l0.556,-0.0278l1.5,-0.7222l-0.778,-1.1389l-0.528,-0.1944l-0.805,-0.3889l-0.917,-0.1667l-0.972,-0.0833l-0.944,-0.0278l-1,0l-2.056,0m80.028,0.7222l-1.695,1.3889l-0.583,0.9167l-0.306,1.9722l0.889,1.8889l1.695,1.3889l0.972,0.3889l1,0.2222l1,0.0555l1,-0.0555l1.972,-0.6111l1.695,-1.3889l0.583,-0.9167l0.306,-1.9722l-0.889,-1.8889l-1.695,-1.3889l-0.972,-0.3889l-1,-0.2222l-1,-0.0555l-1,0.0555l-1.972,0.6111m20.972,-0.7222l0,3l2.056,0l1,0l0.944,-0.0278l0.944,-0.0278l1,-0.1944l0.556,-0.0278l1.5,-0.7222l-0.778,-1.1389l-0.528,-0.1944l-0.805,-0.3889l-0.917,-0.1667l-0.972,-0.0833l-0.944,-0.0278l-1,0l-2.056,0m-230,1l-2,2l0,1l2,2l1,0l2,-2l-0.7222,-1.3889l-0.5278,-0.3611l-1.75,-1.25m-10,1l1,1l-1,-1z" fill="#171820" id="svg_51"/>
  <path d="m20,65l0.1111,1.5l0.6111,1.4444l1.3334,1.3334l1.4444,0.6111l1.5,0.1111l-0.3611,-1.1667l-0.3333,-0.2777l-1.1112,-1.1389l-1.1388,-1.1945l-0.6112,-0.5278l-0.2777,-0.3333l-1.1667,-0.3611z" fill="#939598" id="svg_52"/>
  <path d="m22,65l0,3l3,0l0,-3l-3,0m77,1l0,8l1,1l7,0l-0.361,-1.5l-0.972,-1.5556l-1.695,-1.9444l-1.916,-1.8889l-1,-0.8055l-0.556,-0.5278l-1.5,-0.7778m217,0l0,8l1,1l7,0l-0.778,-1.5l-0.528,-0.5556l-0.805,-1l-0.917,-0.9444l-1.889,-1.9722l-1.611,-1.7222l-0.389,-0.5278l-1.083,-0.7778z" fill="#171820" id="svg_53"/>
  <path d="m31,67l-1,1l0,2l1.1111,-0.75l0.3611,-1.0556l0.1389,-0.4444l-0.6111,-0.75z" fill="#939598" id="svg_54"/>
  <path d="m27.3333,69.6667l0,0.6666l0.3334,0l0,-0.3333l-0.3334,-0.3333m4,0l0,0.6666l0.3334,0l0,-0.3333l-0.3334,-0.3333m126.6667,-0.6667l0,5l1,1l5,0l-0.111,-1.5l-0.5,-1.5l-0.417,-0.9444l-0.305,-0.5556l-0.667,-1.5l-4,0m101,0l0,6l6,0l-0.278,-1.5l-0.666,-1.5278l-0.556,-0.8611l-1.528,-1.3889l-1.472,-0.6111l-1.5,-0.1111m-235,1l1,1l-1,-1z" fill="#171820" id="svg_55"/>
  <path d="m28,70l-2,2l0,1l1.3889,-0.3611l0.3055,-0.3333l0.5834,-0.5278l0.3333,-1.0278l-0.6111,-0.75z" fill="#939598" id="svg_56"/>
  <path d="m28,73l3,0l-1,-2l-2,1l0,1z" fill="#000000" id="svg_57"/>
  <path d="m354,71l0,4l5,0l0,-4l-5,0z" fill="#684f40" id="svg_58"/>
 </g>
</svg>