<?xml version="1.0"?>
<svg width="46" height="83" xmlns="http://www.w3.org/2000/svg" xmlns:svg="http://www.w3.org/2000/svg">
 <g class="layer">
  <title>Layer 1</title>
  <path d="m26.687502,9.375l0,1l-2,1l0.4444,1.5l0.2223,0.5556l0.5555,1.9444l0.1389,1l-0.0555,2l-0.1389,2l0.1111,1.9722l0.0555,0.9167l-0.2222,0.8055l-0.0555,0.5278l-1.0556,0.7778l0.4444,1.5l0.5278,1.5556l0.25,0.9444l0.1667,2l-0.1111,2l0.1111,2l0.1667,2l-0.0278,1l-0.2222,2l0.0833,2l0.1389,1l0,2l-0.1667,1l-0.1944,2l0.1111,1.9722l0.0555,0.9167l-0.2222,0.8055l-0.0555,0.5278l-1.0556,0.7778l0.4444,1.5l0.2223,0.5556l0.5555,1.9444l0.1389,1l0.0278,1l-0.1667,2l-0.0555,1l0.1389,2l0.0833,1l-0.0833,2l-0.1389,2l0.25,1.9444l0.5833,2.0556l0.7222,-0.7778l0.0278,-0.5278l0.1944,-0.8055l0.0278,-0.9167l0.0278,-0.9722l0,-2l0,-1l0,-2l0,-6l0,-34l0,-6l0,-2l0,-1l0,-2l-0.0278,-0.9722l-0.0278,-0.9167l-0.1944,-0.8055l-0.0278,-0.5278l-0.7222,-0.7778z" fill="#b0b4af" id="svg_253" transform="rotate(-179.576 26.1875 41.375)"/>
  <path d="m25,9l1,1l-1,-1z" fill="#c5c9c4" id="svg_2"/>
  <path d="m33,9l1,1l-1,-1z" fill="#848784" id="svg_3"/>
  <path d="m26,10l0.7778,0.7222l0.5278,0.0556l0.8055,0.25l1.8333,0.3055l1,0.0278l0.5556,0.1111l1.5,-0.4722l-0.7778,-0.7222l-0.5278,-0.0278l-0.8055,-0.1944l-0.9167,-0.0278l-0.9166,-0.0278l-1,0l-2.0556,0z" fill="#595b58" id="svg_4"/>
  <path d="m33,10l0,1l-2,1l0.4444,1.5l0.2223,0.5556l0.5555,1.9444l0.1389,1l-0.0555,2l-0.1389,2l0.1111,1.9722l0.0555,0.9167l-0.2222,0.8055l-0.0555,0.5278l-1.0556,0.7778l0.4444,1.5l0.5278,1.5556l0.25,0.9444l0.1667,2l-0.1111,2l0.1111,2l0.1667,2l-0.0278,1l-0.2222,2l0.0833,2l0.1389,1l0,2l-0.1667,1l-0.1944,2l0.1111,1.9722l0.0555,0.9167l-0.2222,0.8055l-0.0555,0.5278l-1.0556,0.7778l0.4444,1.5l0.2223,0.5556l0.5555,1.9444l0.1389,1l0.0278,1l-0.1667,2l-0.0555,1l0.1389,2l0.0833,1l-0.0833,2l-0.1389,2l0.25,1.9444l0.5833,2.0556l0.7222,-0.7778l0.0278,-0.5278l0.1944,-0.8055l0.0278,-0.9167l0.0278,-0.9722l0,-2l0,-1l0,-2l0,-6l0,-34l0,-6l0,-2l0,-1l0,-2l-0.0278,-0.9722l-0.0278,-0.9167l-0.1944,-0.8055l-0.0278,-0.5278l-0.7222,-0.7778z" fill="#b0b4af" id="svg_5"/>
  <path d="m26,11l0.7778,0.9722l0.5278,0.1389l0.75,0.3889l1.4444,0.1389l1.5,-0.6389l-0.7778,-0.7222l-0.5278,-0.0278l-0.75,-0.1944l-0.9166,-0.0278l-2.0278,-0.0278z" fill="#684f40" id="svg_6"/>
  <path d="m32,11l1,1l-1,-1z" fill="#2c302c" id="svg_7"/>
  <path d="m26,12l0,6l1,0l1,-2l-0.4444,-1.4722l-0.5834,-1.2778l-0.1666,-0.4722l-0.8056,-0.7778z" fill="#6d6f6f" id="svg_8"/>
  <path d="m27,12l0,1l2,1l0,-1l-2,-1z" fill="#dbe0d9" id="svg_9"/>
  <path d="m30,12l1,1l-1,-1z" fill="#47494b" id="svg_10"/>
  <path d="m27.3333,13.6667l0,0.6666l0.3334,0l0,-0.6666l-0.3334,0z" fill="#1a1a1b" id="svg_11"/>
  <path d="m29,13l1,1l-1,-1z" fill="#676e66" id="svg_12"/>
  <path d="m30,13l1,1l-1,-1z" fill="#aeb0b0" id="svg_13"/>
  <path d="m31,13l-0.0833,1.75l0,0.5278l1.0833,0.7222l-0.25,-1.75l-0.0278,-0.5278l-0.7222,-0.7222z" fill="#684f40" id="svg_14"/>
  <path d="m28,14l1,1l-1,-1z" fill="#47494b" id="svg_15"/>
  <path d="m29,14l-0.6667,1.4444l-0.6666,1.1112l-0.6667,1.4444l1,1l2,0l1,-1l-0.2778,-1.4722l-0.5833,-1.2778l-0.1667,-0.4722l-0.9722,-0.7778z" fill="#684f40" id="svg_16"/>
  <path d="m28,15l1,1l-1,-1z" fill="#99999b" id="svg_17"/>
  <path d="m30,15l1,1l-1,-1z" fill="#dbe0d9" id="svg_18"/>
  <path d="m27,16l1,1l-1,-1z" fill="#99999b" id="svg_19"/>
  <path d="m31,16l1,1l-1,-1z" fill="#dbe0d9" id="svg_20"/>
  <path d="m32,16l-1.4722,1.4167l-1.1945,1.1944l-0.3611,0.7222l-0.3333,0.4167l0.3611,1.25l-1,0l-1,-2l-0.6944,0.7778l0,0.4722l0,1.2778l0.6944,1.4722l1.5,-0.7778l0.5556,-0.5278l1.8333,-1.7222l1.3333,-1.8611l0.1945,-0.8055l0.1944,-0.5278l-0.6111,-0.7778z" fill="#474f45" id="svg_21"/>
  <path d="m26,18l1,1l-1,-1z" fill="#eff2f0" id="svg_22"/>
  <path d="m27,18l1,1l-1,-1z" fill="#47494b" id="svg_23"/>
  <path d="m32,18l1,1l-1,-1z" fill="#1b221a" id="svg_24"/>
  <path d="m27,19l1,1l-1,-1z" fill="#99999b" id="svg_25"/>
  <path d="m31,19l1,1l-1,-1z" fill="#848784" id="svg_26"/>
  <path d="m27,20l1,1l-1,-1z" fill="#000000" id="svg_27"/>
  <path d="m28,20l1,1l-1,-1z" fill="#c1c3c2" id="svg_28"/>
  <path d="m30,20l1,1l-1,-1z" fill="#9ea19d" id="svg_29"/>
  <path d="m31.3333,20.6667l0,0.6666l0.3334,0l0,-0.6666l-0.3334,0z" fill="#1a1a1b" id="svg_30"/>
  <path d="m29,21l1,1l-1,-1z" fill="#e8ebe8" id="svg_31"/>
  <path d="m30,21l0,1l2,1l-1,-2l-1,0z" fill="#47494b" id="svg_32"/>
  <path d="m26,22l0,2l2,0l1,-1l-0.6944,-0.5556l-0.3334,-0.0277l-0.6111,-0.1667l-1.3611,-0.25z" fill="#848784" id="svg_33"/>
  <path d="m29,22l-1,1l0,2l1,1l2,0l1,-1l-0.7222,-1.3889l-0.5278,-0.3611l-1.75,-1.25z" fill="#684f40" id="svg_34"/>
  <path d="m30,22l1,1l-1,-1z" fill="#99999b" id="svg_35"/>
  <path d="m31.6667,23.3333l0,0.3334l0.6666,0l-0.3333,-0.3334l-0.3333,0z" fill="#787d7a" id="svg_36"/>
  <path d="m26,24l1.25,1.75l0.3611,0.5278l1.3889,0.7222l-0.3611,-1.3889l-0.9167,-0.9444l-0.3333,-0.3056l-1.3889,-0.3611z" fill="#684f40" id="svg_37"/>
  <path d="m32,24l-1,2l2,0l0,-2l-1,0z" fill="#2c302c" id="svg_38"/>
  <path d="m26,25l1,1l-1,-1z" fill="#dbe0d9" id="svg_39"/>
  <path d="m26,26l0,2.0556l0.0278,1l0.0833,0.9166l0.5556,1.6945l0.9444,0.9722l1.3889,0.3611l-1,-2l-1,0l0.5556,-1.5l0.0277,-0.5l0.1667,-1l0.25,-2l-2,0z" fill="#6d6f6f" id="svg_40"/>
  <path d="m28,29l1.3889,-0.7222l0.3611,-0.5278l1.25,-1.75l-1.2222,0.3611l-0.9167,0.9167l-0.3333,0.3333l-0.5278,1.3889z" fill="#47494b" id="svg_41"/>
  <path d="m21,27l-7,7l-2,2l-1,1l-0.9722,1l-0.91669,0.9444l-0.80555,1l-0.52778,0.5556l-0.77778,1.5l1.5,-0.7778l0.55556,-0.5278l1.00004,-0.8055l0.9444,-0.9167l2,-1.9722l2,-2l2,-2l1.9722,-2l0.8889,-0.9722l0.75,-0.9167l0.4167,-0.8055l0.3333,-0.5278l-0.3611,-0.7778z" fill="#dbe0d9" id="svg_42"/>
  <path d="m27.3333,27.6667l0,0.6666l0.3334,0l0,-0.6666l-0.3334,0z" fill="#1a1a1b" id="svg_43"/>
  <path d="m28,27l1,1l-1,-1z" fill="#9ea19d" id="svg_44"/>
  <path d="m30,27l1,1l-1,-1z" fill="#aeb0b0" id="svg_45"/>
  <path d="m31,27l-0.0833,1.75l0,0.5278l1.0833,0.7222l-0.25,-1.75l-0.0278,-0.5278l-0.7222,-0.7222z" fill="#684f40" id="svg_46"/>
  <path d="m21,28l-14,14l0.77778,1.5l0.52778,0.5556l0.80555,1l0.91669,0.9444l0.9722,1l1,1l2,2l2,2l1,1l1,0.9722l0.9444,0.9167l1,0.8055l0.5556,0.5278l1.5,0.7778l0.5833,-2.0556l0.1945,-1l0.1389,-0.9444l0.0833,-2l0,-1l0,-0.9444l0,-3.0556l-0.7222,0.7778l-0.0278,0.5278l-0.1944,0.8055l-0.0278,0.8611l-0.0278,0.9722l0,2.0556l-1.5,-0.7778l-0.5556,-0.5278l-1,-0.8055l-1.9444,-1.8889l-1,-1l-1.9722,-2l-1.5834,-2l-0.3888,-1l0,-1l1.0833,-2l1.8611,-2l2,-2l1,-0.9722l0.9444,-0.9167l1,-0.8055l0.5556,-0.5278l1.5,-0.7778l0,7l0.7222,-0.7778l0.0278,-0.5278l0.1944,-0.8055l0.0278,-0.9167l0.0278,-1.9722l0,-1.9444l0,-3.0556l-2,0z" fill="#5d655b" id="svg_47"/>
  <path d="m23,28l1,1l-1,-1z" fill="#f1f6ef" id="svg_48"/>
  <path d="m29,28l1,1l-1,-1z" fill="#e8ebe8" id="svg_49"/>
  <path d="m28,29l-1,2l1.0833,-1l0.3334,-0.3333l-0.4167,-0.6667z" fill="#99999b" id="svg_50"/>
  <path d="m29,29l-0.6667,1.4444l0.1667,0.5556l0.5,2l1.1111,-0.7778l0.3333,-1.2222l-0.2222,-0.7222l-0.1111,-0.5l-1.1111,-0.7778z" fill="#684f40" id="svg_51"/>
  <path d="m30,29l1,1l-1,-1z" fill="#848784" id="svg_52"/>
  <path d="m31,30l0,2l2,0l0,-2l-2,0z" fill="#474f45" id="svg_53"/>
  <path d="m20,31l-3.0556,3.0556l-0.9444,0.9444l-1.9722,2l-0.9167,1l-0.7778,0.9444l-0.9722,1.5556l-0.3611,1.5l1.5,-0.7778l0.5556,-0.5278l1,-0.8055l0.9444,-0.9167l2,-1.9722l1.9722,-2l0.9167,-0.9444l0.8055,-1l0.5278,-0.5556l0.7778,-1.5l-2,0z" fill="#684f40" id="svg_54"/>
  <path d="m26,32l1,1l-1,-1z" fill="#eff2f0" id="svg_55"/>
  <path d="m30,32l0,2l2,0l0,-2l-2,0z" fill="#31382f" id="svg_56"/>
  <path d="m32,32l1,1l-1,-1z" fill="#f1f6ef" id="svg_57"/>
  <path d="m26,33l0,3l0.6944,-0.75l0,-1.0556l0,-0.4444l-0.6944,-0.75z" fill="#595b58" id="svg_58"/>
  <path d="m27,33l0.75,1.0833l0.4722,0.3611l0.6667,0.7223l1.4444,1.1389l0.4167,0.3333l1.25,0.3611l-0.5278,-1.4722l-0.9722,-1.25l-0.6944,-0.5556l-1.3334,-0.6111l-1.4722,-0.1111z" fill="#7a7c7e" id="svg_59"/>
  <path d="m27,34l1,1l-1,-1z" fill="#000000" id="svg_60"/>
  <path d="m28,34l0,1l2,1l0,-1l-2,-1z" fill="#c1c3c2" id="svg_61"/>
  <path d="m31,34l1,1l-1,-1z" fill="#000000" id="svg_62"/>
  <path d="m27,35l0,2l2,0l0,-2l-2,0z" fill="#31382f" id="svg_63"/>
  <path d="m31,35l1,1l-1,-1z" fill="#4d4d4e" id="svg_64"/>
  <path d="m26,36l1,1l-1,-1z" fill="#9a9e99" id="svg_65"/>
  <path d="m29,36l-0.5,2l-0.1667,0.5556l0.6667,1.4444l1.1111,-0.7778l0.3333,-1.2222l-0.2222,-0.7222l-0.1111,-0.5l-1.1111,-0.7778z" fill="#684f40" id="svg_66"/>
  <path d="m32,36l1,1l-1,-1z" fill="#fbfffb" id="svg_67"/>
  <path d="m26,37l0.1667,1.8333l0.0555,0.8334l-0.0833,1.5l-0.0833,0.4166l-0.0556,1.4167l1.0278,-0.6667l0.7778,-0.6666l1.1944,-0.6667l-0.2778,-1.4722l-0.6111,-1.25l-0.8889,-0.9167l-1.2222,-0.3611z" fill="#434442" id="svg_68"/>
  <path d="m31,37l-0.5278,1.5l-0.9444,1.4722l-0.6667,0.8056l-1.1667,1.5555l-0.3333,0.4167l-0.3611,1.25l1.4722,-0.5278l1.3334,-0.9722l0.6944,-0.75l0.5556,-0.8333l0.6388,-1.8056l-0.0277,-0.8055l0.0277,-0.5278l-0.6944,-0.7778z" fill="#8f908f" id="svg_69"/>
  <path d="m32.3333,37.6667l0,0.3333l0.3334,0.3333l0,-0.3333l-0.3334,-0.3333z" fill="#787d7a" id="svg_70"/>
  <path d="m26,39l1,1l-1,-1z" fill="#9a9e99" id="svg_71"/>
  <path d="m32,39l1,1l-1,-1z" fill="#fbfffb" id="svg_72"/>
  <path d="m16,40l1,1l-1,-1z" fill="#f1f6ef" id="svg_73"/>
  <path d="m23,40l1,1l-1,-1z" fill="#c5c9c4" id="svg_74"/>
  <path d="m29,40l1,1l-1,-1z" fill="#c1c3c2" id="svg_75"/>
  <path d="m31,40l1,1l-1,-1z" fill="#4d4d4e" id="svg_76"/>
  <path d="m15,41l1,1l-1,-1z" fill="#dbe0d9" id="svg_77"/>
  <path d="m16,41l0.7778,0.7222l0.5278,0.0278l0.8055,0.1944l0.9167,0.0278l0.9166,0.0278l1,0l2.0556,0l-0.7778,-0.7222l-0.5278,-0.0278l-0.8055,-0.1944l-0.9167,-0.0278l-0.9166,-0.0278l-1,0l-2.0556,0z" fill="#5d655b" id="svg_78"/>
  <path d="m27,41l1,1l-1,-1z" fill="#000000" id="svg_79"/>
  <path d="m28,41l1,1l-1,-1z" fill="#c1c3c2" id="svg_80"/>
  <path d="m31,41l1,1l-1,-1z" fill="#000000" id="svg_81"/>
  <path d="m11,42l1,1l-1,-1z" fill="#dbe0d9" id="svg_82"/>
  <path d="m23,42l1,1l-1,-1z" fill="#c5c9c4" id="svg_83"/>
  <path d="m30,42l0.1667,1.5l0.0555,1.5l-0.0555,1.5l-0.1667,1.5l1,0l2,-2l-0.2778,-1.4722l-0.6111,-1.25l-0.8889,-0.9167l-1.2222,-0.3611z" fill="#434442" id="svg_84"/>
  <path d="m4,43l-1.47222,1.5l-1.25,1.5l-0.91667,1.5l-0.36111,1.5l2,-0.5833l1,-0.1945l0.5,-0.1389l1.5,-0.0833l0.08333,-1.5l0.13889,-0.5l0.19445,-1l0.58333,-2l-2,0z" fill="#684f40" id="svg_85"/>
  <path d="m6,43l0,1l2,1l-1,-2l-1,0m6,0l1,1l-1,-1z" fill="#dbe0d9" id="svg_86"/>
  <path d="m26,43l1,1l-1,-1z" fill="#eff2f0" id="svg_87"/>
  <path d="m28,43l-1.3333,1.4167l-0.3611,0.3889l-0.3056,1.1944l1.3611,-0.75l0.7222,-1.0556l0.2778,-0.4444l-0.3611,-0.75z" fill="#4d4d4e" id="svg_88"/>
  <path d="m29,43l-2,2l0,1l1,1l2,0l1,-1l-0.6667,-1.75l-0.1944,-0.5278l-1.1389,-0.7222z" fill="#684f40" id="svg_89"/>
  <path d="m32,43l1,1l-1,-1z" fill="#f1f6ef" id="svg_90"/>
  <path d="m5.66667,44.3333l0.33333,0.3334l0.33333,0l-0.33333,-0.3334l-0.33333,0z" fill="#5d655b" id="svg_91"/>
  <path d="m13,44l1,1l-1,-1z" fill="#dbe0d9" id="svg_92"/>
  <path d="m5,45l0,3l0.97222,-0.7222l0.19445,-0.5278l0.83333,-1.75l-2,0z" fill="#b0b4af" id="svg_93"/>
  <path d="m7,45l-1,1l0,2l1.61111,-0.1944l1.13889,0.0277l1.25,0.1667l-0.72222,-1.3889l-0.52778,-0.3611l-1.75,-1.25z" fill="#434442" id="svg_94"/>
  <path d="m8,45l1,1l-1,-1z" fill="#c5c9c4" id="svg_95"/>
  <path d="m14,45l1,1l-1,-1z" fill="#dbe0d9" id="svg_96"/>
  <path d="m21,45l1,1l-1,-1m2,0l1,1l-1,-1z" fill="#c5c9c4" id="svg_97"/>
  <path d="m9,46l1,1l-1,-1z" fill="#848784" id="svg_98"/>
  <path d="m15,46l1,1l-1,-1z" fill="#dbe0d9" id="svg_99"/>
  <path d="m26,46l1,1l-1,-1z" fill="#eff2f0" id="svg_100"/>
  <path d="m27,46l1,1l-1,-1z" fill="#47494b" id="svg_101"/>
  <path d="m32,46l1,1l-1,-1z" fill="#1b221a" id="svg_102"/>
  <path d="m7,47l1,1l-1,-1z" fill="#000000" id="svg_103"/>
  <path d="m10,47l0.3611,1.3889l0.9167,0.9444l0.3333,0.3056l1.3889,0.3611l-0.7222,-1.3889l-0.5278,-0.3611l-1.75,-1.25z" fill="#60685f" id="svg_104"/>
  <path d="m16,47l1,1l-1,-1z" fill="#dbe0d9" id="svg_105"/>
  <path d="m26,47l0.1111,1.4722l0.5556,1.1945l0.6111,0.3611l0.3333,0.3333l1.3889,-0.3611l-0.6944,-1.0556l-0.3334,-0.3055l-0.9166,-0.9445l-1.0556,-0.6944z" fill="#474f45" id="svg_106"/>
  <path d="m27,47l1,1l-1,-1z" fill="#99999b" id="svg_107"/>
  <path d="m28,47l0,1l2,1l0,-2l-2,0z" fill="#5c5e5c" id="svg_108"/>
  <path d="m31,47l1,1l-1,-1z" fill="#848784" id="svg_109"/>
  <path d="m1,48l-0.08333,1.75l0,0.5278l1.08333,0.7222l-0.25,-1.75l-0.02778,-0.5278l-0.72222,-0.7222z" fill="#60685f" id="svg_110"/>
  <path d="m2,50l2.05556,-0.2222l1,-0.0278l1.88888,-0.2222l2.05556,-0.5278l-0.77778,-0.6944l-0.5,0l-0.75,-0.1112l-1.52778,0.0278l-1.19444,-0.0555l-1.25,-0.1667l-1,0l0,2z" fill="#cbccce" id="svg_111"/>
  <path d="m5,48l1,1l-1,-1z" fill="#131713" id="svg_112"/>
  <path d="m9,48l1,1l-1,-1z" fill="#0a0d0c" id="svg_113"/>
  <path d="m17,48l1,1l-1,-1z" fill="#dbe0d9" id="svg_114"/>
  <path d="m27,48l1,1l-1,-1z" fill="#000000" id="svg_115"/>
  <path d="m28,48l1,1l-1,-1z" fill="#c1c3c2" id="svg_116"/>
  <path d="m30,48l1,1l-1,-1z" fill="#9ea19d" id="svg_117"/>
  <path d="m31.3333,48.6667l0,0.6666l0.3334,0l0,-0.6666l-0.3334,0z" fill="#1a1a1b" id="svg_118"/>
  <path d="m3.66667,49.3333l0.33333,0.3334l0.33333,0l-0.33333,-0.3334l-0.33333,0m3.33333,-0.3333l0.72222,0.7222l0.52778,0.0278l1.75,0.25l-0.72222,-0.7222l-0.52778,-0.0278l-1.75,-0.25z" fill="#666767" id="svg_119"/>
  <path d="m10,49l0.0556,2.0278l0.1111,1.75l0.0555,0.8333l-0.0833,1.5556l-0.0833,0.4166l-0.0556,1.4167l0.9722,-0.7778l0.1389,-0.5278l0.3889,-0.8055l0.2222,-1.8889l-0.1666,-1.8889l-0.3612,-0.8055l-0.1111,-0.5278l-1.0833,-0.7778z" fill="#cbccce" id="svg_120"/>
  <path d="m18,49l1,1l-1,-1z" fill="#dbe0d9" id="svg_121"/>
  <path d="m29,49l1,1l-1,-1z" fill="#e8ebe8" id="svg_122"/>
  <path d="m30,49l0,1l2,1l-1,-2l-1,0z" fill="#47494b" id="svg_123"/>
  <path d="m2,50l1.25,1.75l0.36111,0.5278l1.38889,0.7222l-0.36111,-1.3889l-0.91667,-0.9444l-0.33333,-0.3056l-1.38889,-0.3611z" fill="#434442" id="svg_124"/>
  <path d="m4,50l1,1l-1,-1z" fill="#000000" id="svg_125"/>
  <path d="m5.33333,50.6667l0,0.6666l0.33334,0l0,-0.3333l-0.33334,-0.3333z" fill="#b0b4af" id="svg_126"/>
  <path d="m6,50l0,3l0.69444,-0.75l0,-1.0556l0,-0.4444l-0.69444,-0.75z" fill="#595b58" id="svg_127"/>
  <path d="m7,50l0,3l3,0l0,-3l-3,0z" fill="#684f40" id="svg_128"/>
  <path d="m12,50l0.3611,1.3889l0.9167,0.9444l0.3333,0.3056l1.3889,0.3611l-1.25,-1.75l-0.3611,-0.5278l-1.3889,-0.7222z" fill="#434442" id="svg_129"/>
  <path d="m13,50l1,1l-1,-1z" fill="#848784" id="svg_130"/>
  <path d="m19,50l1,1l-1,-1z" fill="#dbe0d9" id="svg_131"/>
  <path d="m26,50l0,2l2,0l1,-1l-0.6944,-0.5556l-0.3334,-0.0277l-0.6111,-0.1667l-1.3611,-0.25z" fill="#848784" id="svg_132"/>
  <path d="m29,50l-1,1l0,2l1,1l2,0l1,-1l-0.7222,-1.3889l-0.5278,-0.3611l-1.75,-1.25z" fill="#684f40" id="svg_133"/>
  <path d="m30,50l1,1l-1,-1z" fill="#99999b" id="svg_134"/>
  <path d="m2,51l1,1l-1,-1z" fill="#848784" id="svg_135"/>
  <path d="m11.3333,51.6667l0,0.6666l0.3334,0l0,-0.6666l-0.3334,0z" fill="#666767" id="svg_136"/>
  <path d="m14,51l1,1l-1,-1z" fill="#848784" id="svg_137"/>
  <path d="m20,51l1,1l-1,-1z" fill="#dbe0d9" id="svg_138"/>
  <path d="m31.6667,51.3333l0.3333,0.3334l0.3333,0l0,-0.3334l-0.6666,0z" fill="#787d7a" id="svg_139"/>
  <path d="m3,52l1,1l-1,-1z" fill="#848784" id="svg_140"/>
  <path d="m5,52l1,1l-1,-1z" fill="#f1f6ef" id="svg_141"/>
  <path d="m12,52l1,1l-1,-1z" fill="#000000" id="svg_142"/>
  <path d="m15,52l0.3611,1.3889l0.3056,0.3333l0.9444,0.9167l1.3889,0.3611l-0.7222,-1.3889l-0.5278,-0.3611l-1.75,-1.25z" fill="#5d655b" id="svg_143"/>
  <path d="m26,52l1.25,1.75l0.3611,0.5278l1.3889,0.7222l-0.3611,-1.3889l-0.9167,-0.9444l-0.3333,-0.3056l-1.3889,-0.3611z" fill="#171717" id="svg_144"/>
  <path d="m32,52l-1,2l2,0l0,-2l-1,0z" fill="#2c302c" id="svg_145"/>
  <path d="m4,53l0.72222,1.3889l0.52778,0.3611l1.75,1.25l-0.36111,-1.3889l-0.91667,-0.9444l-0.33333,-0.3056l-1.38889,-0.3611z" fill="#5d655b" id="svg_146"/>
  <path d="m6,53l1,1l-1,-1z" fill="#dbe0d9" id="svg_147"/>
  <path d="m7,55l1,0l2,-1l-0.75,-0.6944l-1.02778,0.0277l-0.52778,0.3611l-0.33333,0.1667l-0.36111,1.1389z" fill="#b0b4af" id="svg_148"/>
  <path d="m10,53l1,1l-1,-1z" fill="#131713" id="svg_149"/>
  <path d="m12.6667,53.3333l0,0.3334l0.6666,0l-0.3333,-0.3334l-0.3333,0z" fill="#b0b4af" id="svg_150"/>
  <path d="m14,53l1,1l-1,-1z" fill="#f1f6ef" id="svg_151"/>
  <path d="m26,53l1,1l-1,-1z" fill="#dbe0d9" id="svg_152"/>
  <path d="m7,55l0.72222,1.3889l0.52778,0.3611l1.75,1.25l-0.16667,-1.4167l-0.02777,-1.1666l0.19444,-1.4167l-2,0l-1,1z" fill="#434442" id="svg_153"/>
  <path d="m12,54l0.7222,0.7222l0.5278,0.0278l1.75,0.25l-0.7222,-0.7222l-0.5278,-0.0278l-1.75,-0.25z" fill="#595b58" id="svg_154"/>
  <path d="m15,54l-1.3889,0.8333l-0.9444,0.7778l-0.5556,1l-0.1111,1.3889l4,0l-0.0556,-1.9444l-0.1944,-0.8056l-0.0278,-0.4722l-0.7222,-0.7778z" fill="#684f40" id="svg_155"/>
  <path d="m23,54l1,1l-1,-1z" fill="#f1f6ef" id="svg_156"/>
  <path d="m26,54l0.1111,1.3889l0.5556,0.9444l0.1944,0.3056l1.1389,0.3611l-0.8333,-1.75l-0.1945,-0.5278l-0.9722,-0.7222z" fill="#595b58" id="svg_157"/>
  <path d="m27,54l1,1l-1,-1z" fill="#848784" id="svg_158"/>
  <path d="m29,54l0,2l2,-1l0,-1l-2,0z" fill="#676e66" id="svg_159"/>
  <path d="m9,55l1,1l-1,-1z" fill="#000000" id="svg_160"/>
  <path d="m11,55l0.1111,1.4722l0.6111,1.25l0.5556,0.5556l1.25,0.6111l1.4722,0.1111l-0.75,-0.8333l-0.4444,-0.25l-0.6112,-0.5556l-1.1111,-1.1667l-0.25,-0.4444l-0.8333,-0.75z" fill="#666767" id="svg_161"/>
  <path d="m16,55l1,1l-1,-1z" fill="#9a9e99" id="svg_162"/>
  <path d="m17,55l-1,1l0,2l1.6111,-0.1944l1.1389,0.0277l1.25,0.1667l-0.7222,-1.3889l-0.5278,-0.3611l-1.75,-1.25z" fill="#434442" id="svg_163"/>
  <path d="m18,55l1,1l-1,-1z" fill="#848784" id="svg_164"/>
  <path d="m27,55l1,1l-1,-1z" fill="#000000" id="svg_165"/>
  <path d="m28,55l1,1l-1,-1z" fill="#b7bab7" id="svg_166"/>
  <path d="m30,55l1,1l-1,-1z" fill="#aeb0b0" id="svg_167"/>
  <path d="m31,55l-0.0833,1.75l0,0.5278l1.0833,0.7222l-0.25,-1.75l-0.0278,-0.5278l-0.7222,-0.7222z" fill="#171717" id="svg_168"/>
  <path d="m7,56l1,1l-1,-1m12,0l1,1l-1,-1z" fill="#848784" id="svg_169"/>
  <path d="m28,56l-1.3333,1.4167l-0.3611,0.3889l-0.3056,1.1944l1.3889,-0.3611l0.3055,-0.3333l0.5834,-0.5278l0.3333,-1.0278l-0.6111,-0.75z" fill="#868989" id="svg_170"/>
  <path d="m29,56l1,1l-1,-1z" fill="#e8ebe8" id="svg_171"/>
  <path d="m8,57l1,1l-1,-1z" fill="#848784" id="svg_172"/>
  <path d="m10,57l1,1l-1,-1z" fill="#0a0d0c" id="svg_173"/>
  <path d="m17,57l1,1l-1,-1z" fill="#000000" id="svg_174"/>
  <path d="m20,57l0.3611,1.3889l0.9167,0.9444l0.3333,0.3056l1.3889,0.3611l-0.7222,-1.3889l-0.5278,-0.3611l-1.75,-1.25z" fill="#60685f" id="svg_175"/>
  <path d="m29,57l-2,2l0,1l1,1l2,0l1,-1l-0.6667,-1.75l-0.1944,-0.5278l-1.1389,-0.7222z" fill="#684f40" id="svg_176"/>
  <path d="m30,57l1,1l-1,-1z" fill="#848784" id="svg_177"/>
  <path d="m9,58l1.25,1.75l0.3611,0.5278l1.3889,0.7222l-0.3611,-1.3889l-0.3056,-0.3333l-0.9444,-0.9167l-1.3889,-0.3611z" fill="#60685f" id="svg_178"/>
  <path d="m11,58l1,1l-1,-1z" fill="#a8aaa9" id="svg_179"/>
  <path d="m15.3333,58.6667l0,0.6666l0.3334,0l0,-0.6666l-0.3334,0z" fill="#383e37" id="svg_180"/>
  <path d="m16,58l1,1l-1,-1z" fill="#a4a7a5" id="svg_181"/>
  <path d="m17.6667,58.3333l0,0.3334l0.6666,0l0,-0.3334l-0.6666,0z" fill="#666767" id="svg_182"/>
  <path d="m19,58l-1,1l-2,0l0.7778,0.7222l0.5278,0.0278l0.75,0.1944l0.9166,0.0278l2.0278,0.0278l-1,-2l-1,0z" fill="#cbccce" id="svg_183"/>
  <path d="m31.6667,58.3333l0,0.3334l0.6666,0l-0.3333,-0.3334l-0.3333,0z" fill="#5d655b" id="svg_184"/>
  <path d="m12,59l1,1l-1,-1z" fill="#0a0d0c" id="svg_185"/>
  <path d="m13.6667,59.3333l0,0.3334l0.6666,0l-0.3333,-0.3334l-0.3333,0z" fill="#cbccce" id="svg_186"/>
  <path d="m26,59l1,1l-1,-1z" fill="#535656" id="svg_187"/>
  <path d="m31,59l-2,2l-1,0l0.7778,0.6944l0.5278,-0.0277l0.7777,0.0277l1.5834,-0.5833l0.9722,-0.8889l0.3611,-1.2222l-2,0z" fill="#1b221a" id="svg_188"/>
  <path d="m12,60l0.7778,1.3889l1.3055,0.9167l0.8334,0.25l0.75,0l0.6111,-0.25l0.6111,-0.9167l0.1111,-1.3889l-1,0l-1,2l-0.7222,-1.1389l-0.5278,-0.1944l-1.75,-0.6667z" fill="#434442" id="svg_189"/>
  <path d="m14,60l0,1l2,1l0,-2l-2,0z" fill="#684f40" id="svg_190"/>
  <path d="m17,60l0,3l3,0l0,-3l-3,0z" fill="#684f40" id="svg_191"/>
  <path d="m20,60l0,3l0.6944,-0.75l0,-0.4444l0,-1.0556l-0.6944,-0.75z" fill="#666767" id="svg_192"/>
  <path d="m21,60l1,1l-1,-1z" fill="#0a0d0c" id="svg_193"/>
  <path d="m22,60l0.3611,1.3889l0.9167,0.9444l1.25,0.5556l1.4722,0.1111l-0.7778,-1.0556l-0.4722,-0.3055l-1.2778,-0.9445l-1.4722,-0.6944z" fill="#434442" id="svg_194"/>
  <path d="m23,60l1,1l-1,-1z" fill="#848784" id="svg_195"/>
  <path d="m26,60l1,1l-1,-1z" fill="#eff2f0" id="svg_196"/>
  <path d="m27,60l1,1l-1,-1z" fill="#47494b" id="svg_197"/>
  <path d="m12,61l1,1l-1,-1z" fill="#848784" id="svg_198"/>
  <path d="m21.3333,61.6667l0,0.6666l0.3334,0l0,-0.3333l-0.3334,-0.3333z" fill="#cbccce" id="svg_199"/>
  <path d="m24,61l1,1l-1,-1z" fill="#848784" id="svg_200"/>
  <path d="m26,61l-0.7778,1.3889l-0.4722,0.3333l-1.2778,0.9167l-1.4722,0.3611l0.7778,0.6944l0.5,0l1.4166,0.1667l0.5834,0.1945l0.3611,0.0555l0.3611,0.8889l0.7222,-0.7778l0.0278,-0.5278l0.1667,-0.7777l-0.1667,-1.6111l-0.0278,-0.5278l-0.7222,-0.7778z" fill="#595b58" id="svg_201"/>
  <path d="m27,61l1,1l-1,-1z" fill="#99999b" id="svg_202"/>
  <path d="m31,61l1,1l-1,-1m-18,1l1,1l-1,-1z" fill="#848784" id="svg_203"/>
  <path d="m22,62l1,1l-1,-1z" fill="#000000" id="svg_204"/>
  <path d="m27,62l0,3l2,-1l-1,-2l-1,0z" fill="#171717" id="svg_205"/>
  <path d="m28,62l1,1l-1,-1z" fill="#aeb0b0" id="svg_206"/>
  <path d="m29,62l1,1l-1,-1z" fill="#676e66" id="svg_207"/>
  <path d="m30,62l1,1l-1,-1z" fill="#9ea19d" id="svg_208"/>
  <path d="m31.3333,62.6667l0,0.6666l0.3334,0l0,-0.6666l-0.3334,0z" fill="#1a1a1b" id="svg_209"/>
  <path d="m14,63l0.7222,0.9722l0.5278,0.1945l1.75,0.8333l-1,-2l-2,0z" fill="#5d655b" id="svg_210"/>
  <path d="m16,63l1,1l-1,-1z" fill="#dbe0d9" id="svg_211"/>
  <path d="m17,65l2,-1l1,0l-0.75,-0.6944l-1.0278,0.0277l-0.5278,0.3611l-0.3333,0.1667l-0.3611,1.1389z" fill="#b0b4af" id="svg_212"/>
  <path d="m20,63l1,1l-1,-1z" fill="#e1e6e1" id="svg_213"/>
  <path d="m21,63l1,1l-1,-1z" fill="#131713" id="svg_214"/>
  <path d="m22.6667,63.3333l0,0.3334l0.6666,0l0,-0.3334l-0.6666,0z" fill="#b0b4af" id="svg_215"/>
  <path d="m24,63l1,1l-1,-1z" fill="#f1f6ef" id="svg_216"/>
  <path d="m29,63l1,1l-1,-1z" fill="#e8ebe8" id="svg_217"/>
  <path d="m30,63l0,1l2,1l-1,-2l-1,0z" fill="#47494b" id="svg_218"/>
  <path d="m15,64l1,1l-1,-1z" fill="#b0b4af" id="svg_219"/>
  <path d="m17,65l1.25,1.75l0.3611,0.5278l1.3889,0.7222l-0.1667,-1.4167l-0.0277,-1.1666l0.1944,-1.4167l-2,0l-1,1z" fill="#434442" id="svg_220"/>
  <path d="m20,64l1,1l-1,-1z" fill="#a4a7a5" id="svg_221"/>
  <path d="m21,64l-0.3333,2l-0.0278,1l-0.1111,0.5l0.4722,1.5l0.7222,-0.7778l0.0278,-0.5278l0.1667,-0.7777l-0.1667,-1.6111l-0.0278,-0.5278l-0.7222,-0.7778z" fill="#cbccce" id="svg_222"/>
  <path d="m25,64l-1.3889,0.8333l-0.9444,0.7778l-0.5556,1l-0.1111,1.3889l1.5,0l1.5278,-0.0556l1.6944,-0.0555l0.8056,0.1667l0.3889,0.0555l1.0833,0.8889l1.4444,-0.6667l1.1112,-0.6666l1.4444,-0.6667l-0.7222,-1.0278l-0.5278,-0.3889l-1.75,-1.5833l-1.4722,0.5556l-1.3056,0.2222l-1.1389,-0.2222l-1.0833,-0.5556z" fill="#684f40" id="svg_223"/>
  <path d="m28,64l1,1l-1,-1z" fill="#848784" id="svg_224"/>
  <path d="m30,64l1,1l-1,-1z" fill="#99999b" id="svg_225"/>
  <path d="m16,65l1,1l-1,-1z" fill="#dbe0d9" id="svg_226"/>
  <path d="m19,65l1,1l-1,-1z" fill="#000000" id="svg_227"/>
  <path d="m20.3333,65.6667l0,0.6666l0.3334,0l0,-0.6666l-0.3334,0z" fill="#666767" id="svg_228"/>
  <path d="m27,65l1,1l-1,-1z" fill="#848784" id="svg_229"/>
  <path d="m31.6667,65.3333l0.3333,0.3334l0.3333,0l0,-0.3334l-0.6666,0z" fill="#787d7a" id="svg_230"/>
  <path d="m17,66l1,1l-1,-1m1,1l1,1l-1,-1m9,0l0.6667,1.75l0.1944,0.5278l1.1389,0.7222l-0.6667,-1.75l-0.1944,-0.5278l-1.1389,-0.7222z" fill="#dbe0d9" id="svg_231"/>
  <path d="m31,67l-1,1l0,2l1.1111,-0.75l0.3611,-1.0556l0.1389,-0.4444l-0.6111,-0.75z" fill="#fcfeff" id="svg_232"/>
  <path d="m32,67l1,1l-1,-1z" fill="#5f635f" id="svg_233"/>
  <path d="m19,68l0.7778,1.5l0.5278,0.5556l1.6666,1.8333l0.9722,0.8055l0.5556,0.5278l1.5,0.7778l-0.7778,-1.5l-0.5278,-0.5556l-1.6666,-1.8333l-0.9722,-0.8055l-0.5556,-0.5278l-1.5,-0.7778z" fill="#dbe0d9" id="svg_234"/>
  <path d="m20,68l1,1l-1,-1z" fill="#60685f" id="svg_235"/>
  <path d="m22,68l0.7222,0.7222l0.5278,0.0278l1.75,0.25l-0.7222,-0.7222l-0.5278,-0.0278l-1.75,-0.25z" fill="#666767" id="svg_236"/>
  <path d="m25.3333,68.6667l0,0.6666l0.3334,0l0,-0.6666l-0.3334,0z" fill="#383e37" id="svg_237"/>
  <path d="m26,68l0,4l0.7222,-0.7778l0.1667,-1.2222l-0.1667,-0.7222l0,-0.5l-0.7222,-0.7778z" fill="#595b58" id="svg_238"/>
  <path d="m21,69l1,1l-1,-1z" fill="#60685f" id="svg_239"/>
  <path d="m22,69l1,1l-1,-1z" fill="#0a0d0c" id="svg_240"/>
  <path d="m23.6667,69.3333l0,0.3334l0.6666,0l-0.3333,-0.3334l-0.3333,0z" fill="#cbccce" id="svg_241"/>
  <path d="m27.3333,69.6667l0,0.6666l0.3334,0l0,-0.3333l-0.3334,-0.3333z" fill="#000000" id="svg_242"/>
  <path d="m29.3333,69.6667l0,0.6666l0.3334,0l0,-0.3333l-0.3334,-0.3333z" fill="#3e443e" id="svg_243"/>
  <path d="m31.3333,69.6667l0,0.6666l0.3334,0l0,-0.3333l-0.3334,-0.3333z" fill="#000000" id="svg_244"/>
  <path d="m22,70l0.7778,1.3889l0.5278,0.3333l0.75,0.6111l1.4444,0.5556l1.5,0.1111l-0.7778,-1.0556l-1.2778,-0.8888l-0.9166,-0.4167l-0.5278,-0.3056l-1.5,-0.3333z" fill="#434442" id="svg_245"/>
  <path d="m24,70l0,1l2,1l0,-2l-2,0z" fill="#684f40" id="svg_246"/>
  <path d="m28,70l-1,1l0,2l1.1111,-0.75l0.3611,-1.0556l0.1389,-0.4444l-0.6111,-0.75z" fill="#fcfeff" id="svg_247"/>
  <path d="m30,70l0.6667,1.75l0.1944,0.5278l1.1389,0.7222l-0.6667,-1.75l-0.1944,-0.5278l-1.1389,-0.7222z" fill="#dbe0d9" id="svg_248"/>
  <path d="m29,71l-2,2l0,1l5,0l-0.7222,-1.3889l-0.5278,-0.3611l-1.75,-1.25z" fill="#684f40" id="svg_249"/>
  <path d="m32,72l-0.7778,1.1389l-1.3333,0.5l-1.8333,-0.0556l-1.5556,-0.3333l-1.5,-0.25l0.3611,1.1389l0.9722,0.5833l1.6945,0.25l1.9444,0l1.6945,-0.3055l0.5833,-0.3611l0.3611,-0.5278l0.0833,-1.0278l-0.6944,-0.75z" fill="#595b58" id="svg_250"/>
  <path d="m33,74l1,1l-1,-1z" fill="#2d2e2d" id="svg_251"/>
  <path d="m20.104163,41.5l-3.0556,3.0556l-0.9444,0.9444l-1.9722,2l-0.9167,1l-0.7778,0.9444l-0.9722,1.5556l-0.3611,1.5l1.5,-0.7778l0.5556,-0.5278l1,-0.8055l0.9444,-0.9167l2,-1.9722l1.9722,-2l0.9167,-0.9444l0.8055,-1l0.5278,-0.5556l0.7778,-1.5l-2,0z" fill="#684f40" id="svg_252" transform="rotate(91.5708 16.6042 47)"/>
 </g>
</svg>