<?xml version="1.0" standalone="yes"?>
<svg xmlns="http://www.w3.org/2000/svg" width="366" height="83">
<path style="fill:#ffffff; stroke:none;" d="M0 0L0 9L359 9L359 75L0 75L0 83L366 83L366 0L0 0z"/>
<path style="fill:#5d655b; stroke:none;" d="M25 9L25 61L17 53C14.1924 50.1925 10.8688 45.5176 7.00077 44.1759C4.02683 43.1444 0.534598 45.7903 0.921296 49.0046C1.38676 52.8737 6.44288 56.4417 9 59C16.816 66.8195 22.327 74.991 34 75L34 9L25 9z"/>
<path style="fill:#919396; stroke:none;" d="M90 50L89 45C82.132 45.8725 75.7361 47.5738 69 44.8557C57.3748 40.1648 54.6827 25.4038 65.0432 17.8032C72.1736 12.5723 81.0633 13.7697 89 16L90 10C82.7806 8.65971 74.1706 7.98498 67 9.92747C51.9335 14.009 43.7851 33.7647 56.3287 45.4707C65.194 53.744 79.2056 52.7927 90 50M113 9L113 51L143 51L143 46L121 46L121 32L140 32L140 27L121 27L121 15L142 15L142 9L113 9z"/>
<path style="fill:#5d655b; stroke:none;" d="M192 9L192 33C191.993 37.0769 192.257 41.5786 188.772 44.4352C185.388 47.2088 180.988 46.2817 177 46L176 51C179.324 51.6171 182.602 52.1683 186 51.9059C205.89 50.3697 200 22.9384 200 9L192 9z"/>
<path style="fill:#939598; stroke:none;" d="M30 11L30 14C31.1952 12.7772 31.3164 12.58 32 11L30 11z"/>
<path style="fill:#939598; stroke:none;" d="M27 14C26.4435 17.2914 26.6407 18.6355 29 21L29 14L27 14z"/>
<path style="fill:#939598; stroke:none;" d="M30 21L30 28C31.8971 25.4929 32.5128 23.2058 30 21z"/>
<path style="fill:#5d655b; stroke:none;" d="M221 21.4792C199.722 23.9665 203.794 53.9998 225 51.5208C237.147 50.1009 245.81 35.2696 235.606 25.5579C232.055 22.1778 225.749 20.924 221 21.4792M244 46L243 50C248.488 51.3521 254.558 52.6967 259.981 50.2971C264.328 48.3737 266.882 43.4348 264.127 39.108C261.907 35.6198 249.532 33.2213 251.207 28.213C252.673 23.8287 260.612 25.8563 264 25L264 23C257.792 20.8991 238.831 21.2218 245.183 32.892C247.822 37.7402 254.122 36.9818 257.623 40.6481C260.128 43.271 257.836 46.2073 254.98 47.2184C251.552 48.4319 247.394 46.7001 244 46z"/>
<path style="fill:#5d655b; stroke:none;" d="M271 22L271 51L292 51L292 47L277 47L277 38L291 38L291 34L277 34L277 26L291 26L291 22L271 22M297 22L297 51L303 51L303 40C307.559 39.9623 312.938 39.8406 316.772 36.9946C320.892 33.9361 320.955 27.0542 316.772 24.0093C311.758 20.3606 302.861 22 297 22M325 22L325 51L331 51L331 38L347 38L347 51L353 51L353 22L347 22L347 34L331 34L331 22L325 22z"/>
<path style="fill:#747a75; stroke:none;" d="M32 23L32 26C32.6961 24.4463 32.6961 24.5537 32 23z"/>
<path style="fill:#5d655b; stroke:none;" d="M23 57C24.1706 53.0398 24 49.1129 24 45L21 45L21 51C18.8032 48.7998 14.0556 45.4435 14.0556 42C14.0556 38.5565 18.8032 35.2002 21 33L21 38L24 38L24 27C19.1476 28.362 8.20679 36.3138 8.20679 42C8.20679 47.4562 18.5948 54.9457 23 57z"/>
<path style="fill:#939598; stroke:none;" d="M27 28C26.4435 31.2914 26.6407 32.6355 29 35L29 28L27 28z"/>
<path style="fill:#939598; stroke:none;" d="M29 35C29.8195 40.5907 24.242 44.2628 29 49C28.8693 45.3683 28.7925 43.0159 32 41L32 35L29 35z"/>
<path style="fill:#787d7a; stroke:none;" d="M32 36L32 40C32.7102 38.2405 32.7102 37.7595 32 36z"/>
<path style="fill:#5d655b; stroke:none;" d="M15 40L15 43L24 43L24 40L15 40z"/>
<path style="fill:#787d7a; stroke:none;" d="M29 41L29 43C30.6352 42.4549 30.4549 42.6352 31 41L29 41z"/>
<path style="fill:#919396; stroke:none;" d="M100.039 43.9167C94.7544 44.414 95.8756 52.0903 100.961 51.534C106.117 50.9698 105.299 43.4217 100.039 43.9167M152.055 43.9313C146.145 45.5481 149.455 53.3456 154.856 51.3526C159.885 49.497 157.033 42.5693 152.055 43.9313z"/>
<path style="fill:#939598; stroke:none;" d="M2 48L2 50L5 50L5 48L2 48z"/>
<path style="fill:#747a75; stroke:none;" d="M6.33333 48.6667C6.27778 48.7222 6.22222 49.7778 6.66667 49.3333C6.72222 49.2778 6.77778 48.2222 6.33333 48.6667z"/>
<path style="fill:#939598; stroke:none;" d="M7 48C8.08242 50.2176 9.78236 51.9176 12 53C11.0658 49.8734 10.1266 48.9342 7 48z"/>
<path style="fill:#939598; stroke:none;" d="M30 49C29.9522 51.2276 29.6577 52.8662 29 55L30 56C31.8971 53.4929 32.5128 51.2058 30 49z"/>
<path style="fill:#747a75; stroke:none;" d="M32 51L32 54C32.6961 52.4463 32.6961 52.5537 32 51z"/>
<path style="fill:#747a75; stroke:none;" d="M10.6667 54.3333C10.2222 54.7778 11.2778 54.7222 11.3333 54.6667C11.7778 54.2222 10.7222 54.2778 10.6667 54.3333z"/>
<path style="fill:#939598; stroke:none;" d="M10 55C10.9342 58.1266 11.8734 59.0658 15 60C13.9176 57.7824 12.2176 56.0824 10 55z"/>
<path style="fill:#939598; stroke:none;" d="M27 56C26.2477 59.31 26.5781 60.619 29 63L29 56L27 56z"/>
<path style="fill:#939598; stroke:none;" d="M16 58L16 60C18.5698 60.4746 19.7749 61.9139 22 63C20.9433 59.5083 19.5824 58.568 16 58z"/>
<path style="fill:#684f40; stroke:none;" d="M135 59L135 64L141 63C141 67.1134 140.956 70.9826 140 75L145 75C144.044 70.9826 144 67.1134 144 63L150 64L150 59C144.908 60.2123 140.092 60.2123 135 59M213 59L213 64L219 63L219 75L224 75C223.044 70.9826 223 67.1134 223 63L229 64L229 59C223.548 60.2981 218.477 60.0167 213 59z"/>
<path style="fill:#684f40; stroke:none;" d="M69 73C68.3872 71.3385 67.9573 70.5167 67 69C64.9234 70.3679 62.6902 72.0257 60.044 71.2924C54.971 69.8867 56.0488 63.9707 61.0116 63.5733C62.9915 63.4148 65.1485 64.4288 67 65L69 61C64.8616 60.2317 59.0951 58.8148 55.2284 61.179C51.0537 63.7315 50.8855 71.2971 55.1481 73.821C59.2659 76.2591 65.0399 74.9058 69 73M77.0548 60.7423C72.4062 62.6622 70.9903 68.8818 74.5147 72.5664C77.3025 75.4809 83.3701 75.7343 86.9452 74.2577C91.5938 72.3378 93.0097 66.1182 89.4853 62.4336C86.6975 59.5191 80.6299 59.2657 77.0548 60.7423M95 60C96.2123 65.0919 96.2123 69.9081 95 75L100 75C99.2757 71.9605 99.0262 69.1217 99 66C103.386 70.3951 106.474 74.7838 113 75C111.788 69.9081 111.788 65.0919 113 60L108 60L108 68C103.868 63.8486 101.114 60.2026 95 60M128 70C124.204 71.9375 121.936 71.4218 118 70L117 74C120.358 74.7994 135.838 76.2307 130.953 68.3133C129.084 65.2839 123.723 65.3683 121 63C125.386 63.2213 129.449 65.3453 132 61C128.42 60.3354 123.659 59.0685 120.148 60.6034C117.096 61.9375 116.45 66.0228 119.319 67.973C121.565 69.5004 125.384 69.3752 128 70M153 60C154.212 65.0919 154.212 69.9081 153 75L159 75L158 69C161.457 70.0636 162.669 71.6692 164 75L170 75C168.85 72.7112 167.639 70.9806 166 69C168.978 67.0575 171.342 62.6753 166.771 60.6034C163.019 58.9028 157.052 60 153 60M173 60C173.9 63.779 173.016 69.4399 175.179 72.6821C177.492 76.1477 186.508 76.1477 188.821 72.6821C190.984 69.4399 190.1 63.779 191 60L185 60C185.655 62.753 186.591 66.098 185.396 68.8511C184.212 71.5784 180.81 72.291 179.028 69.6775C177.304 67.1484 178 62.9008 178 60L173 60M211 73L209 69C206.924 70.3673 204.667 72.0445 202.02 71.2886C197.074 69.8762 198.178 64.0189 203.001 63.5772C204.973 63.3964 207.157 64.4313 209 65L211 61C206.969 60.2516 202.015 59.1065 198.055 60.7423C192.598 62.996 191.949 70.8367 197.133 73.821C201.318 76.2296 206.909 74.7263 211 73M236.055 60.7423C231.406 62.6622 229.99 68.8818 233.515 72.5664C236.302 75.4809 242.37 75.7343 245.945 74.2577C250.594 72.3378 252.01 66.1182 248.485 62.4336C245.698 59.5191 239.63 59.2657 236.055 60.7423M254 60C255.212 65.0919 255.212 69.9081 254 75L259 75L259 69C263.65 71.2681 265.453 74.8157 271 75C269.794 72.9537 268.752 71.5897 267 70C267.666 69.0731 268.728 67.998 269.127 66.8403C272.26 57.7447 259.344 60 254 60M286 71C281.927 71.8743 278.958 71.0445 275 70L274 74C277.617 74.8611 282.34 75.8586 285.941 74.3966C288.622 73.3078 290.497 70.0943 288.238 67.6026C286.146 65.2944 280.862 65.2079 278 64C281.684 63.3114 284.421 64.0629 288 65L289 61C285.633 60.1983 281.421 59.2409 278.059 60.6034C275.436 61.6668 273.489 64.8151 275.762 67.2577C277.942 69.6007 283.104 69.6045 286 71M302 60C303.212 65.0919 303.212 69.9081 302 75L308 75C306.788 69.9081 306.788 65.0919 308 60L302 60M312 60L312 75L317 75C316.276 71.9605 316.026 69.1217 316 66C319.591 70.7089 322.839 74.5355 329 75L329 60L324 60C324.724 63.0395 324.974 65.8783 325 69C320.932 64.7526 318.203 60.4689 312 60M350 73L349 69C346.847 69.9368 344.458 71.6337 342.005 71.3426C338.689 70.9492 336.337 67.2382 339.337 64.7569C343.109 61.6381 347.165 65.8292 350 61C346.325 60.1251 341.689 59.1896 338.019 60.6034C332.827 62.6041 331.071 70.6677 336.228 73.821C340.278 76.2967 346.095 74.8792 350 73z"/>
<path style="fill:#6f756f; stroke:none;" d="M20 63L20 65L22 65L22 63L20 63z"/>
<path style="fill:#939598; stroke:none;" d="M30 63C30.6836 64.58 30.8048 64.7772 32 66L32 63L30 63z"/>
<path style="fill:#939598; stroke:none;" d="M20 65C20.9342 68.1266 21.8734 69.0658 25 70C23.9176 67.7824 22.2176 66.0824 20 65z"/>
<path style="fill:#939598; stroke:none;" d="M31 67C30.0143 68.4785 30 68.2032 30 70C31.2892 68.5574 31.4009 68.7663 31 67z"/>
<path style="fill:#939598; stroke:none;" d="M28 70C26.8137 71.1863 26.4721 71.5838 26 73C27.9943 72.1527 28.699 71.9929 28 70z"/>
<path style="fill:#684f40; stroke:none;" d="M354 71L354 75L359 75L359 71L354 71z"/>
</svg>
